<svg width="120" height="26" viewBox="0 0 120 26" fill="none" xmlns="http://www.w3.org/2000/svg">
<path d="M2.85197 13.7187C2.94361 13.6941 3.04524 13.6809 3.14213 13.676C37.2784 12.1871 71.9063 11.1976 106.078 10.7302C106.825 10.7192 107.442 11.3184 107.453 12.0658C107.464 12.8133 106.864 13.4297 106.117 13.4407C71.9731 13.9077 37.3731 14.8967 3.26475 16.3851C2.5158 16.4175 1.88312 15.8366 1.85086 15.0879C1.82526 14.4426 2.24982 13.88 2.85197 13.7187Z" fill="white"/>
<path d="M104.911 0.432545C105.009 0.406238 105.111 0.393039 105.221 0.384607C105.971 0.358774 106.599 0.947908 106.617 1.6936L107.285 21.7813C107.311 22.5318 106.72 23.153 105.975 23.1771C105.225 23.2029 104.597 22.6138 104.579 21.8681L103.911 1.78039C103.887 1.14161 104.32 0.583851 104.916 0.424258L104.911 0.432545Z" fill="white"/>
<path d="M105.503 1.41011C105.876 1.31014 106.293 1.37375 106.637 1.61112L119.175 10.4957C119.521 10.7396 119.733 11.1385 119.749 11.5622C119.757 11.9876 119.572 12.395 119.236 12.6603L106.204 22.9826C105.62 23.4477 104.765 23.3471 104.3 22.7634C103.835 22.1797 103.936 21.3252 104.52 20.8602L116.134 11.6611L105.076 3.82451C104.463 3.39288 104.32 2.54743 104.752 1.93381C104.94 1.66609 105.215 1.48728 105.509 1.40836L105.503 1.41011Z" fill="white"/>
<path d="M1.25592 5.27526C1.32137 5.25772 1.38685 5.24019 1.44926 5.23749C2.19074 5.15102 2.86694 5.6851 2.95331 6.42634L5.00307 24.1032C5.08944 24.8444 4.56161 25.5188 3.8136 25.6071C3.07212 25.6935 2.39582 25.1594 2.30945 24.4182L0.259779 6.74137C0.184392 6.06731 0.614491 5.44713 1.25592 5.27526Z" fill="white"/>
</svg>
