<svg width="181" height="240" viewBox="0 0 181 240" fill="none" xmlns="http://www.w3.org/2000/svg">
<path d="M157.546 131.5C148.45 143.487 134.137 152.732 120.284 161.656C117.839 163.223 115.454 164.781 113.114 166.306C112.44 166.752 111.935 167.38 111.654 168.08C111.161 168.495 110.75 169.02 110.516 169.669C109.746 171.665 110.737 173.907 112.732 174.677C112.991 174.775 113.784 175.09 113.886 176.748C114.018 178.86 112.791 181.296 111.174 182.167C107.178 184.303 101.826 183.106 96.2156 181.556L74.8932 175.704C69.2823 174.155 63.1175 172.131 61.1596 167.612C60.3886 165.853 61.6721 163.172 63.3024 161.951C63.9622 161.464 64.3675 161.368 64.6542 161.411C64.8644 161.443 65.0029 161.562 65.0898 161.633C66.5808 162.894 68.7761 162.854 70.2268 161.527C71.6584 160.198 71.8913 158.004 70.7417 156.422C55.8959 135.862 54.7296 107.662 55.3874 85.3885C55.8477 69.6172 57.162 52.9772 63.6663 38.2141C70.5632 22.5324 82.8671 11.4395 96.5596 8.5152C108.9 5.87609 123.386 9.87703 135.29 19.2189C144.922 26.7714 153.058 37.2471 161.663 53.1715C166.234 61.6239 171.085 71.7221 172.541 82.5605C174.645 98.3073 169.183 116.141 157.549 131.481L157.546 131.5Z" fill="#F45727"/>
<path d="M148.719 58.3987C147.092 56.9999 144.66 57.1812 143.262 58.8089C141.864 60.4365 142.045 62.8692 143.671 64.268C147.34 67.4216 149.556 72.8206 149.79 79.0551C150.011 85.1118 148.484 91.355 147.03 97.3744C146.522 99.4491 147.791 101.537 149.864 102.045C149.979 102.062 150.094 102.08 150.208 102.097C152.158 102.391 154.064 101.152 154.536 99.1895C156.128 92.6433 157.771 85.8896 157.536 78.7552C157.237 70.3597 154.036 62.935 148.741 58.3825L148.719 58.3987Z" fill="#F45727"/>
<path d="M180.199 81.5434C178.598 69.4705 173.359 58.5708 168.471 49.5034C159.332 32.5795 150.583 21.3662 140.057 13.1314C126.368 2.40595 109.503 -2.14896 94.9421 0.957481C78.8265 4.39679 64.4896 17.1782 56.5886 35.1141C49.5501 51.0874 48.1387 68.6319 47.6588 85.1825C47.0408 106.543 48.0524 133.174 60.428 154.693C59.8572 154.978 59.275 155.34 58.7251 155.746C54.6536 158.771 51.6397 165.024 54.07 170.69C57.6662 178.996 67.5377 181.715 72.8484 183.18L90.7912 188.112C90.8216 188.43 90.8739 188.731 90.9836 189.041C92.2541 192.674 91.7455 196.958 89.5867 200.779C87.4089 204.597 84.0019 207.232 80.232 207.994C77.8749 208.461 75.2238 208.413 72.417 208.362C67.1368 208.251 61.1541 208.132 56.2783 211.954C52.6265 214.787 50.8919 218.907 49.3659 222.549C48.1215 225.491 46.9574 228.288 44.9903 229.928C40.47 233.725 32.4661 230.935 29.232 229.568C20.7641 225.965 12.9694 220.489 6.69318 213.755C5.22919 212.185 2.79697 212.112 1.23051 213.558C-0.335946 215.004 -0.412212 217.456 1.03267 219.023C8.02985 226.55 16.7435 232.674 26.2031 236.7C29.3063 238.028 32.3037 238.89 35.0941 239.31C41.0571 240.208 46.1776 239.044 49.9797 235.862C53.3611 233.007 55.0316 229.054 56.4963 225.559C57.7742 222.525 58.9852 219.676 61.0258 218.067C63.7482 215.954 67.7057 216.022 72.2644 216.122C75.3637 216.179 78.5585 216.249 81.7616 215.617C87.7269 214.423 93.0416 210.413 96.3141 204.648C98.8939 200.108 99.8703 195.053 99.1798 190.295C99.9959 190.457 100.806 190.657 101.628 190.781C106.138 191.46 110.639 191.297 114.827 189.054C119.142 186.75 121.924 181.518 121.611 176.327C121.495 174.374 120.921 172.605 119.97 171.132C121.446 170.162 122.959 169.197 124.476 168.213C138.222 159.351 153.806 149.32 163.712 136.242C176.566 119.287 182.574 99.3845 180.207 81.6228L180.199 81.5434ZM157.546 131.5C148.45 143.487 134.137 152.732 120.284 161.656C117.839 163.223 115.454 164.781 113.114 166.306C112.44 166.752 111.935 167.38 111.654 168.08C111.161 168.495 110.75 169.02 110.516 169.669C109.746 171.665 110.737 173.907 112.732 174.677C112.991 174.775 113.784 175.09 113.886 176.748C114.018 178.86 112.791 181.296 111.174 182.167C107.178 184.303 101.826 183.106 96.2156 181.556L74.8932 175.704C69.2823 174.155 63.1175 172.131 61.1596 167.612C60.3886 165.853 61.6721 163.172 63.3024 161.951C63.9622 161.464 64.3675 161.368 64.6542 161.411C64.8644 161.443 65.0029 161.562 65.0898 161.633C66.5808 162.894 68.7761 162.854 70.2268 161.527C71.6584 160.198 71.8913 158.004 70.7417 156.422C55.8959 135.862 54.7296 107.662 55.3874 85.3885C55.8477 69.6172 57.162 52.9772 63.6663 38.2141C70.5632 22.5324 82.8671 11.4395 96.5596 8.5152C108.9 5.87609 123.386 9.87703 135.29 19.2189C144.922 26.7714 153.058 37.2471 161.663 53.1715C166.234 61.6239 171.085 71.7221 172.541 82.5605C174.645 98.3073 169.183 116.141 157.549 131.481L157.546 131.5Z" fill="black"/>
</svg>
