<svg width="659" height="630" viewBox="0 0 659 630" fill="none" xmlns="http://www.w3.org/2000/svg">
<path d="M105.431 206.292C104.999 211.791 105.082 217.315 105.494 222.808C106.492 236.375 108.558 249.991 112.175 263.071C115.763 276.041 120.814 288.533 125.984 300.91C134.045 320.208 143.644 338.925 153.989 357.041C176.214 396.001 261.878 509.001 274.636 521.738C302.505 549.566 340.496 566.97 380.099 565.95C415.039 565.056 449.157 551.698 478.327 532.492C487.036 526.756 495.299 520.389 503.53 513.985C509.751 509.146 515.887 504.071 521.042 498.055C530.522 486.997 537.941 475.606 542.001 461.385C545.911 447.651 545.379 434.967 543.372 421.181C541.774 410.205 537.417 399.542 532.526 389.751C527.489 379.671 520.523 370.501 513.381 361.929C502.872 349.322 490.559 338.398 480.214 325.664C477.608 321.739 475.274 317.657 473.255 313.408C471.722 308.852 470.509 304.185 469.626 299.453C469.248 294.22 469.261 288.975 469.671 283.739C470.566 279.194 471.761 274.731 473.291 270.353C474.503 267.879 475.763 265.415 477.051 262.967C480.771 255.909 484.047 248.666 486.885 241.167C491.306 229.451 491.973 216.911 490.408 204.659C488.939 193.167 485.511 182.159 479.538 172.18C474.365 163.556 467.868 155.103 460.101 148.683C455.169 144.601 450.196 140.367 444.677 137.09C438.842 133.628 432.309 131.036 426.065 128.612C415.311 124.443 403.127 123.065 391.73 122.552C380.213 122.026 368.633 123.756 357.302 125.594C348.494 127.019 339.818 129.205 331.245 131.692C314.094 136.643 297.158 142.626 279.58 145.794C273.448 146.376 267.309 146.491 261.179 146.076C250.484 144.143 240.111 140.844 230.024 136.787C226.831 135.33 223.647 133.86 220.43 132.444C212.552 128.974 204.551 125.044 195.964 123.712C184.704 121.966 174.339 121.28 163.141 124.583C153.944 127.297 146.537 131.426 139.064 137.144C131.307 143.104 125.969 149.088 120.185 157.327C118.844 159.226 117.688 161.251 116.676 163.343C114.102 168.683 111.684 174.263 109.857 179.929C107.144 188.333 106.14 197.587 105.445 206.3L105.431 206.292Z" fill="#376ADA"/>
<mask id="mask0_9_198" style="mask-type:alpha" maskUnits="userSpaceOnUse" x="116" y="129" width="414" height="438">
<path d="M117.033 212.21C116.627 217.627 116.705 223.068 117.092 228.479C118.029 241.843 119.97 255.256 123.368 268.14C126.738 280.916 131.482 293.221 136.339 305.414C143.91 324.423 152.927 342.861 162.644 360.706C183.52 399.084 263.986 510.396 275.97 522.942C302.147 550.354 337.833 567.498 375.033 566.494C407.852 565.613 439.9 552.454 467.299 533.535C475.48 527.885 483.242 521.614 490.973 515.305C496.817 510.538 502.58 505.539 507.423 499.613C516.327 488.72 523.296 477.5 527.109 463.491C530.782 449.962 530.283 437.467 528.398 423.888C526.896 413.076 522.804 402.572 518.21 392.927C513.478 382.998 506.935 373.965 500.226 365.521C490.355 353.102 478.79 342.342 469.072 329.798C466.625 325.931 464.432 321.911 462.535 317.725C461.096 313.237 459.956 308.64 459.127 303.978C458.772 298.824 458.784 293.657 459.169 288.5C460.01 284.022 461.132 279.626 462.569 275.313C463.708 272.876 464.892 270.449 466.102 268.038C469.595 261.085 472.673 253.95 475.338 246.563C479.492 235.022 480.118 222.67 478.647 210.602C477.268 199.281 474.048 188.437 468.438 178.608C463.578 170.113 457.476 161.786 450.18 155.461C445.547 151.441 440.876 147.27 435.692 144.042C430.211 140.632 424.075 138.078 418.209 135.69C408.108 131.584 396.664 130.226 385.958 129.722C375.14 129.203 364.263 130.907 353.619 132.718C345.346 134.121 337.196 136.275 329.144 138.724C313.033 143.601 297.125 149.495 280.614 152.615C274.854 153.189 269.087 153.303 263.33 152.894C253.283 150.989 243.54 147.739 234.065 143.743C231.066 142.308 228.075 140.86 225.053 139.466C217.653 136.047 210.138 132.176 202.072 130.863C191.495 129.144 181.759 128.468 171.241 131.722C162.602 134.395 155.644 138.463 148.625 144.095C141.339 149.966 136.325 155.86 130.891 163.976C129.632 165.847 128.546 167.842 127.596 169.902C125.178 175.163 122.906 180.66 121.19 186.241C118.642 194.519 117.699 203.635 117.046 212.218L117.033 212.21Z" fill="#376ADA"/>
</mask>
<g mask="url(#mask0_9_198)">
<path d="M345.772 375.899C345.842 368.32 334.816 368.296 334.747 375.899C334.608 389.769 325.481 402.995 312.834 406.636C300.581 410.178 286.683 404.159 279.919 392.766C276.121 386.376 266.577 392.296 270.399 398.711C279.827 414.562 298.658 422.933 315.776 417.98C333.148 412.977 345.587 394.921 345.772 375.875L345.772 375.899Z" fill="black"/>
<path d="M245.29 447.602C245.128 447.825 244.966 448.023 244.827 448.271C244.549 448.766 244.317 449.286 244.109 449.831C242.835 451.738 241.908 453.893 241.422 456.221C241.098 457.757 241.214 459.367 241.978 460.754C242.65 461.967 243.97 463.131 245.267 463.453C246.194 463.676 247.166 463.701 248.093 463.453C250.108 464.865 252.54 465.608 254.949 465.361C256.965 465.162 258.91 464.667 260.601 463.404C262.64 461.893 264.446 459.738 265.002 457.088C265.975 452.308 263.798 447.949 260.092 445.323C258.586 444.258 256.849 443.689 255.088 443.565C254.393 443.392 253.675 443.268 253.004 443.243C252.008 443.193 250.942 443.367 250.016 443.738C249.228 444.06 248.533 444.481 247.861 444.927C246.958 445.423 246.17 446.141 245.638 447.057C245.545 447.181 245.452 447.33 245.36 447.453C245.337 447.478 245.313 447.528 245.29 447.553L245.29 447.602Z" fill="black"/>
<path d="M360.504 484.63C357.794 475.689 352.976 466.475 344.591 462.537C332.407 456.816 321.196 465.361 312.44 473.782C307.159 478.859 314.965 487.181 320.246 482.128C327.149 475.515 337.156 467.441 344.823 477.274C351.146 485.348 350.868 496.469 354.899 505.658C357.099 510.686 360.736 514.648 365.646 516.58C371.576 518.884 377.691 516.729 383.737 517.621C394.068 519.131 402.036 529.336 398.978 540.555C396.986 547.862 407.641 550.983 409.61 543.701C412.552 532.902 409.17 520.84 401.109 513.559C397.171 509.992 392.377 507.441 387.281 506.401C381.93 505.286 376.741 506.549 371.391 505.955C362.681 504.989 362.566 491.515 360.481 484.679L360.504 484.63Z" fill="black"/>
<path d="M385.868 388.556C380.98 400.642 380.401 414.314 383.412 427.02C390.894 458.599 419.779 476.927 447.482 484.506C454.361 486.388 457.303 475.02 450.424 473.138C431.383 467.936 411.903 457.955 400.715 439.924C391.126 424.444 389.111 402.376 399.441 386.698C405.186 377.98 415.563 372.159 425.06 369.608C429.901 368.32 435.043 367.974 439.838 369.732C444.517 371.441 448.154 375.355 450.887 379.639C457.141 389.497 462.005 401.534 463.488 413.373C464.183 418.822 464.785 424.593 459.758 427.565C455.612 430.042 450.794 431.032 446.069 430.933C436.109 430.71 423.161 423.825 422.211 411.887C421.863 407.503 424.226 402.104 428.488 400.964C431.824 400.073 436.039 403.565 435.066 407.354C433.213 414.686 443.845 417.831 445.698 410.5C449.428 395.664 433.098 384.073 421.215 391.553C408.336 399.652 409.147 417.732 417.717 428.853C426.566 440.345 441.598 444.704 454.964 441.856C461.426 440.469 468.792 437.125 472.336 430.859C476.251 423.974 474.977 414.661 473.587 407.181C472.104 399.156 469.232 391.454 465.873 384.147C462.862 377.608 459.341 370.971 454.361 365.893C443.313 354.673 427.747 355.119 414.405 361.039C402.105 366.488 391.265 375.255 385.845 388.58L385.868 388.556Z" fill="black"/>
<path d="M396.592 287.008C396.592 287.008 396.5 287.008 396.477 287.033C396.523 287.033 396.569 287.033 396.615 287.008L396.592 287.008Z" fill="black"/>
<path d="M396.801 275.144C385.567 276.11 378.015 287.107 379.915 298.847C379.984 299.293 380.146 299.714 380.355 300.11C380.702 308.952 386.678 316.581 394.23 319.85C401.85 323.144 410.745 320.692 415.934 313.906C421.076 307.169 422.813 298.054 419.454 289.98C415.841 281.237 405.811 274.376 396.801 275.169L396.801 275.144ZM393.396 305.088C393.72 305.485 393.581 305.336 393.396 305.088V305.088ZM407.711 306.104C407.711 306.104 407.873 305.881 407.942 305.782C407.85 305.93 407.757 306.079 407.711 306.104ZM410.166 297.311C410.12 297.088 410.073 296.816 410.096 296.841C410.143 296.841 410.166 297.088 410.166 297.311ZM401.642 287.652C401.781 287.701 402.105 287.85 402.244 287.9C402.568 288.073 402.893 288.222 403.194 288.395C405.811 289.881 407.85 291.813 409.239 294.438C409.378 294.686 409.471 294.983 409.61 295.231C409.61 295.231 409.61 295.231 409.61 295.256C409.772 295.9 409.934 296.544 410.096 297.187C410.096 297.262 410.12 297.311 410.143 297.361C410.143 297.559 410.143 297.732 410.143 297.807C410.166 298.55 410.143 299.268 410.096 300.011C410.027 300.283 410.004 300.581 409.934 300.853C409.795 301.448 409.656 302.042 409.471 302.612C409.425 302.76 409.378 302.958 409.332 303.132C409.309 303.181 409.286 303.206 409.239 303.28C408.869 303.999 408.545 304.717 408.104 305.41C408.104 305.41 408.012 305.559 407.942 305.708C407.826 305.856 407.711 306.005 407.595 306.153C407.224 306.599 406.83 307.045 406.414 307.441C406.321 307.54 406.182 307.689 406.043 307.813C405.997 307.813 405.973 307.838 405.904 307.887C405.695 308.011 405.047 308.556 404.514 308.878C404.514 308.878 404.421 308.878 404.213 308.952C403.842 309.076 403.495 309.2 403.124 309.324C402.87 309.398 402.615 309.448 402.36 309.522C401.735 309.522 401.109 309.522 400.484 309.522C400.414 309.522 400.414 309.522 400.368 309.522C400.345 309.522 400.345 309.522 400.298 309.522C399.905 309.423 399.488 309.348 399.094 309.225C398.816 309.15 398.561 309.051 398.306 308.952C398.167 308.903 398.005 308.828 397.866 308.779C397.195 308.382 396.523 308.036 395.874 307.565C395.643 307.392 395.411 307.218 395.179 307.045C396.291 307.887 395.064 306.896 394.832 306.674C394.299 306.153 393.836 305.584 393.35 305.014C393.303 304.94 393.234 304.865 393.21 304.816C392.933 304.395 392.678 303.949 392.423 303.478C392.284 303.231 392.168 302.958 392.029 302.686C392.006 302.612 391.983 302.612 391.96 302.562C391.96 302.513 391.96 302.513 391.937 302.463C391.798 301.943 391.427 301.126 391.334 300.432C391.334 300.358 391.357 300.259 391.357 300.135C391.357 299.54 391.334 298.946 391.357 298.327C391.404 297.237 391.079 296.172 390.524 295.256C390.524 295.008 390.524 294.735 390.524 294.488C390.524 294.463 390.547 294.116 390.57 293.869C390.616 293.621 390.663 293.348 390.663 293.324C390.732 293.027 391.172 291.813 391.172 291.714C391.45 291.169 391.728 290.649 392.006 290.104C392.052 290.005 392.075 289.98 392.099 289.93C392.122 289.906 392.145 289.881 392.191 289.831C392.4 289.609 392.562 289.361 392.77 289.163C393.025 288.89 393.303 288.643 393.558 288.37C393.581 288.37 393.581 288.37 393.627 288.321C393.882 288.147 394.114 287.974 394.346 287.825C394.346 287.825 394.508 287.726 394.67 287.627C394.832 287.578 395.434 287.305 395.457 287.28C395.782 287.181 396.129 287.107 396.453 287.008C396.199 287.082 396.361 287.008 396.569 286.983C396.662 286.983 396.754 286.934 396.824 286.909C396.708 286.934 396.639 286.958 396.569 286.983C396.708 286.958 396.87 286.909 396.986 286.909C397.38 286.884 397.774 286.859 398.167 286.884C398.492 286.884 398.793 286.934 399.117 286.934C399.21 286.934 399.233 286.934 399.279 286.934C399.349 286.934 399.395 286.983 399.511 287.008C400.206 287.231 400.901 287.379 401.596 287.627L401.642 287.652Z" fill="black"/>
<path d="M248.973 338.302C244.063 337.708 239.523 339.268 235.469 342.141C233.547 334.042 239.777 325.571 245.615 321.212C252.841 315.813 261.551 313.187 270.33 313.336C274.383 313.41 278.738 314.054 282.838 315.441C282.189 317.447 281.749 319.627 281.633 321.93C281.286 328.395 284.065 334.983 289.185 338.55C295.276 342.76 302.92 340.729 306.325 333.893C310.726 325.051 306.487 317.547 299.979 312.122C303.175 310.934 306.951 310.859 310.286 311.776C320.849 314.723 327.937 324.828 334.399 333.522C336.252 336.023 340.259 335.602 342.205 333.522C344.521 331.045 344.058 327.677 342.205 325.175C333.287 313.138 323.211 301.2 308.086 299.441C300.951 298.599 294.095 300.927 289.138 305.509C287.563 304.816 286.034 304.246 284.621 303.825C271.696 299.788 257.451 301.249 245.429 307.664C234.126 313.683 223.332 326.24 224.165 340.605C224.374 344.345 225.393 347.738 227.014 350.735C222.266 357.101 218.722 364.779 216.753 371.02C211.773 386.822 214.414 405.051 225.486 417.162C230.466 422.611 238.249 414.265 233.292 408.816C220.575 394.896 224.721 373.596 234.936 359.454C239.592 362.673 245.29 364.382 250.988 364.259C258.424 364.085 264.632 359.231 262.894 350.512C261.528 343.602 255.297 339.095 249.02 338.327L248.973 338.302ZM295.995 329.064C295.276 329.286 294.002 327.553 293.632 326.934C292.891 325.67 292.636 324.283 292.636 322.797C292.636 322.104 292.682 321.46 292.775 320.841C293.192 321.187 293.632 321.509 294.026 321.881C294.883 322.698 299.122 328.122 295.995 329.088L295.995 329.064ZM251.035 351.355C251.197 351.503 251.382 351.825 251.567 352.122C250.432 352.122 248.811 352.42 248.116 352.345C246.518 352.147 244.873 351.627 243.345 350.958C244.572 350.314 245.846 349.893 247.19 349.918C248.487 349.943 250.016 350.413 251.012 351.355L251.035 351.355Z" fill="black"/>
<path d="M254.115 213.497C252.193 215.553 251.776 219.838 254.115 221.844C270.144 235.541 286.729 248.494 303.893 260.531C308.34 263.652 312.672 258.525 312 253.869C311.004 247.058 310.935 240.123 311.722 233.287C313.182 234.599 314.641 236.432 315.405 237.175C318.416 240.172 321.451 243.169 324.462 246.166C330.346 252.011 336.206 257.832 342.089 263.677C347.278 268.828 355.107 260.506 349.895 255.33C344.012 249.485 338.152 243.664 332.268 237.819C329.419 234.996 326.57 232.147 323.698 229.324C320.964 226.624 318.254 223.429 314.942 221.522C311.954 219.788 308.202 219.119 305.051 220.779C301.253 222.785 301.276 227.689 300.789 231.702C300.303 235.714 300.164 239.702 300.233 243.689C287.123 234.129 274.314 224.073 261.898 213.472C259.582 211.491 256.362 211.045 254.092 213.472L254.115 213.497Z" fill="black"/>
<path d="M211.912 282.079C212.491 281.881 212.978 281.609 213.418 281.287C214.553 281.856 215.873 282.054 217.24 281.732C218.49 281.46 219.741 281.212 220.992 280.989C221.27 280.94 221.571 280.89 221.849 280.841C221.849 280.841 221.872 280.841 221.895 280.841C222.613 280.742 223.308 280.667 224.026 280.593C226.644 280.345 229.261 280.246 231.879 280.296C236.233 280.395 238.527 275.268 236.65 271.429C236.372 270.859 236.002 270.215 235.793 269.571C235.793 269.497 235.747 269.448 235.724 269.349C235.608 269.002 235.469 268.655 235.376 268.284C234.936 266.872 234.566 265.41 234.334 263.924C234.334 263.875 234.265 263.404 234.218 263.181C234.218 263.057 234.195 262.934 234.172 262.81C234.126 262.141 234.079 261.472 234.056 260.779C234.056 260.036 234.056 259.268 234.079 258.525C234.079 258.154 234.126 257.782 234.149 257.411C234.172 257.064 234.357 255.652 234.149 257.188C234.404 255.231 234.334 253.646 233.153 252.036C232.157 250.674 230.512 249.559 228.821 249.708C221.664 250.327 214.53 250.971 207.372 251.59C203.55 251.912 201.419 255.082 202.045 259.045C203.064 265.336 204.06 271.602 205.079 277.893C205.565 280.94 209.225 282.921 211.866 282.005L211.912 282.079Z" fill="black"/>
<path d="M462.492 291.59C456.863 300.283 452.555 309.918 449.636 320.023C448.501 323.961 451.535 327.156 454.964 327.478C457.025 327.677 459.087 327.899 461.148 328.172C461.704 328.246 462.283 328.321 462.839 328.395C463.048 328.42 463.187 328.444 463.279 328.444C463.372 328.444 463.464 328.469 463.603 328.494C464.623 328.643 465.665 328.816 466.684 328.989C470.877 329.683 475.046 330.525 479.192 331.491C480.93 331.887 482.829 331.441 484.219 330.302C484.613 330.178 485.006 330.005 485.377 329.732C487.855 328.023 488.944 324.482 487.346 321.658C481.833 311.85 476.714 301.819 472.012 291.565C471.178 289.732 469.093 288.643 467.24 288.643C465.179 288.643 463.604 289.807 462.469 291.565L462.492 291.59Z" fill="black"/>
<path d="M369.237 204.135C367.847 207.553 366.503 212.209 363.608 214.612C361.245 216.544 359.994 219.689 361.639 222.686C363.006 225.163 366.804 226.748 369.19 224.791C374.958 220.036 376.95 213.844 380.031 207.082C381.096 204.729 382.509 201.51 384.964 200.519C386.817 199.751 388.091 200.073 388.277 202.253C388.833 209.312 384.941 215.677 384.686 222.637C384.385 230.042 389.921 236.729 397.241 234.426C400.576 233.386 403.078 230.637 405.417 228.036C407.942 225.212 410.722 222.909 413.988 221.175C415.748 220.234 418.667 218.599 420.705 219.243C420.752 219.243 421.516 219.243 421.562 219.367C421.724 219.788 420.265 222.315 419.964 222.983C416.767 230.29 415.262 239.181 420.983 245.621C425.847 251.095 433.098 250.897 438.332 246.24C440.765 244.085 444.679 235.863 448.362 237.547C451.559 239.008 451.883 243.59 451.512 246.711C451.281 248.791 450.702 250.822 450.169 252.804C449.937 253.646 449.312 257.188 448.663 257.732C446.301 259.664 445.05 262.81 446.694 265.807C448.061 268.284 451.86 269.869 454.246 267.912C460.337 262.909 462.816 252.085 462.677 244.135C462.515 235.763 457.674 227.194 449.497 225.633C442.154 224.222 437.545 229.646 433.213 234.996C432.287 236.135 430.758 238.637 429.276 237.819C426.519 236.308 428.673 230.81 429.484 228.903C431.221 224.767 433.26 220.804 432.078 216.123C431.129 212.259 428.419 209.485 424.944 208.197C418.088 205.671 410.235 209.287 404.584 213.373C401.318 215.751 398.816 218.649 395.967 221.497C396.06 220.779 396.152 220.135 396.199 220.011C398.121 212.234 401.642 202.377 397.473 194.723C392.956 186.401 382.069 186.996 376 192.89C372.85 195.937 370.927 199.999 369.26 204.11L369.237 204.135Z" fill="black"/>
<path d="M338.314 177.931C337.086 176.593 335.557 175.652 333.89 175.082C333.403 174.909 332.893 174.81 332.361 174.736C332.361 174.736 332.361 174.736 332.338 174.736C331.527 174.587 330.67 174.414 329.836 174.463C328.191 174.587 326.524 174.959 325.134 175.974C322.841 177.609 320.988 180.135 320.501 183.107C320.223 184.767 320.154 186.079 320.362 187.714C320.571 189.349 320.964 190.587 321.613 192.123C322.099 193.262 322.864 194.327 323.675 195.194C324.694 196.308 325.898 197.126 327.219 197.72C329.882 198.934 332.893 199.132 335.673 198.191C338.198 197.349 340.7 195.764 342.39 193.534C342.923 192.841 343.456 192.123 343.896 191.355C344.359 190.537 344.684 189.596 345.008 188.729C345.517 187.417 345.101 185.361 344.452 184.197C343.78 182.983 342.46 181.819 341.163 181.497C340.931 181.448 340.676 181.398 340.422 181.373C339.889 180.085 339.171 178.872 338.314 177.931Z" fill="black"/>
<path d="M216.915 217.807C220.76 224.147 230.327 218.253 226.435 211.863C221.455 203.664 218.351 189.943 225.046 181.695C230.906 174.463 242.186 177.361 249.159 180.804C259.072 185.683 268.847 193.46 280.151 193.931C285.108 194.129 290.273 192.098 292.844 187.293C295.601 182.092 294.744 175.281 294.026 169.634C292.312 156.185 286.984 143.85 278.946 133.398C274.43 127.528 266.67 135.925 271.14 141.745C277.626 150.191 281.911 160.767 283.232 171.615C283.556 174.24 283.996 177.336 283.602 179.962C283.301 182.042 282.467 182.191 280.614 182.166C275.796 182.092 270.886 179.442 266.67 177.188C257.312 172.135 248.464 166.439 237.762 165.646C227.663 164.878 217.564 169.634 213.209 179.838C208.021 192.024 210.198 206.859 216.892 217.856L216.915 217.807Z" fill="black"/>
<path d="M307.761 540.778C306.719 528.543 300.071 516.828 293.308 507.144C286.637 497.608 277.788 489.435 266.438 487.602C256.061 485.918 245.105 489.806 239.963 500.134C235.469 509.175 236.118 521.088 244.132 527.627C249.413 531.936 256.432 531.986 261.829 527.85C267.527 523.466 269.797 516.506 271.511 509.521C273.318 502.165 262.663 499.045 260.879 506.376C259.906 510.314 256.038 524.134 250.108 517.621C246.889 514.079 247.861 508.085 250.595 504.122C254.44 498.574 261.62 498.079 267.411 499.837C274.661 502.066 280.336 507.887 284.645 514.277C287.331 518.264 289.694 522.5 291.918 526.785C294.165 531.119 296.342 535.726 296.759 540.729C297.037 543.899 299.098 546.624 302.272 546.624C305.051 546.624 308.063 543.924 307.785 540.729L307.761 540.778Z" fill="black"/>
<path d="M183.792 410.302C178.812 397.893 175.453 384.519 173.924 371.094C173.646 368.717 172.766 366.661 170.543 365.695C168.574 364.853 166.026 365.15 164.52 366.909C155.695 377.311 145.897 386.772 135.242 394.971C132.833 396.828 131.652 400.098 133.273 403.045C134.315 404.927 136.608 406.19 138.74 405.967C139.62 407.949 141.565 409.163 143.743 409.385C154.884 410.5 166.026 413.546 176.287 418.327C181.522 420.779 186.062 415.85 183.838 410.252L183.792 410.302ZM164.775 383.627C166.026 390.314 167.67 396.878 169.686 403.342C163.015 401.063 156.205 399.404 149.232 398.339C154.653 393.707 159.841 388.803 164.775 383.627Z" fill="black"/>
<path d="M384.269 579.713C383.968 576.667 381.976 573.645 378.757 573.819C373.869 574.091 368.982 574.413 364.094 574.785C361.709 574.958 359.3 575.156 356.914 575.354C354.018 575.602 350.984 575.75 348.83 578.153C346.305 580.976 346.768 584.518 347.44 587.986C347.95 590.537 348.436 593.088 348.946 595.614C349.988 600.914 351.03 606.215 352.073 611.515C352.443 613.422 353.972 614.933 355.756 615.552C356.705 616.493 357.91 617.088 359.3 616.989C366.781 616.419 374.263 615.874 381.745 615.305C384.478 615.106 387.605 612.753 387.258 609.41C386.262 599.503 385.289 589.62 384.293 579.713L384.269 579.713ZM360.041 594.945C359.601 592.716 359.161 590.462 358.72 588.233C358.651 587.837 358.558 587.441 358.489 587.045L359.763 586.945C361.871 586.772 363.979 586.599 366.086 586.45C368.681 586.252 371.252 586.103 373.846 585.955C374.448 591.973 375.051 597.992 375.653 604.01C371.113 604.357 366.55 604.679 362.01 605.026C361.361 601.682 360.689 598.339 360.041 594.97L360.041 594.945Z" fill="black"/>
<path d="M213.487 521.36C220.274 511.825 219.695 499.763 216.174 488.939C213.001 479.156 208.299 469.596 201.211 462.413C186.131 447.131 161.3 445.72 144.484 458.599C142.075 460.457 140.894 463.726 142.515 466.673C143.905 469.224 147.634 470.661 150.066 468.779C159.633 461.447 171.747 459.689 182.865 463.825C194.933 468.308 202.137 480.915 205.936 493.299C208.044 500.134 209.109 507.738 204.986 513.98C201.743 518.884 196.138 521.484 190.556 520.667C184.116 519.701 179.947 514.673 176.982 508.877C174.295 503.602 170.288 495.751 172.511 489.608C174.828 483.218 183.282 486.562 186.965 489.658C189.096 491.441 191.019 494.116 191.413 497.063C191.459 497.361 191.366 497.881 191.274 498.426C189.861 496.939 187.637 496.246 185.784 496.791C182.703 497.707 181.383 500.902 181.939 504.048C182.773 508.977 187.429 512.073 191.922 511.924C196.81 511.751 200.632 507.689 201.906 502.834C204.5 492.952 198.431 482.921 190.602 478.116C182.124 472.915 170.172 472.221 164.08 481.633C157.919 491.144 162.042 503.032 166.281 512.345C170.566 521.757 177.561 530.103 187.614 532.035C197.551 533.942 207.372 529.98 213.51 521.385L213.487 521.36Z" fill="black"/>
<path d="M195.953 343.652C188.008 340.605 182.333 331.937 182.309 322.946C182.309 317.15 183.931 311.429 184.464 305.683C184.973 300.16 184.695 294.364 182.75 289.163C178.928 278.958 169.616 273.807 159.934 272.098C150.391 270.414 139.55 270.116 130.841 275.293C119.838 281.856 117.846 295.33 118.008 307.615C118.124 315.194 129.15 315.218 129.034 307.615C128.918 299.194 129.196 288.866 137.512 284.878C144.553 281.485 154.074 282.376 161.347 284.482C164.868 285.497 168.458 287.132 170.797 290.253C173.554 293.893 173.809 298.822 173.6 303.305C173.114 313.336 169.686 322.773 172.697 332.754C175.87 343.231 183.352 351.33 193.011 355.045C199.705 357.621 202.577 346.228 195.953 343.677L195.953 343.652Z" fill="black"/>
<path d="M365.554 118.216C361.106 124.928 364.812 133.572 368.356 139.689C368.959 140.73 369.654 141.696 370.302 142.711C358.002 145.262 350.359 130.971 346.768 120.618C344.313 113.559 333.658 116.606 336.136 123.764C341.418 138.996 351.98 156.135 369.329 154.723C372.34 154.476 375.328 153.634 378.085 152.271C385.775 160.073 395.179 165.943 404.931 170.352C421.516 177.881 442.71 185.485 459.689 175.355C465.897 171.664 460.337 161.46 454.13 165.175C443.405 171.565 430.179 167.429 419.315 163.59C408.799 159.875 398.283 154.922 389.574 147.491C388.555 146.624 387.536 145.708 386.563 144.742C386.887 144.222 387.258 143.702 387.536 143.132C390.917 136.445 390.338 127.578 386.192 121.411C381.722 114.773 371.02 110.067 365.6 118.24L365.554 118.216ZM377.506 128.767C378.456 130.525 378.849 132.655 378.618 134.661C378.618 134.736 378.571 134.81 378.571 134.909C377.367 132.928 376.116 130.822 375.282 128.643C374.981 127.85 374.865 126.983 374.657 126.191C374.657 126.191 374.703 126.216 374.703 126.24C375.074 127.33 375.004 126.983 374.865 126.364C375.815 127.033 376.765 127.405 377.506 128.767Z" fill="black"/>
<path d="M442.548 514.599C441.459 517.026 441.089 519.627 441.367 522.178C441.112 524.432 441.413 526.562 442.34 528.642C443.127 530.45 444.471 531.763 445.93 532.927C446.718 533.571 447.598 534.017 448.501 534.388C449.983 535.552 451.628 536.469 453.435 536.939C456.145 537.633 458.739 537.36 461.264 536.097C463.14 535.156 464.877 533.398 465.897 531.466C467.147 529.088 467.564 526.215 466.823 523.59C466.429 522.153 465.48 520.915 464.298 520.122C464.067 518.834 463.696 517.571 463.14 516.333C461.611 512.816 458.554 510.066 455.079 508.977C450.215 507.466 444.795 509.645 442.548 514.624L442.548 514.599Z" fill="black"/>
<path d="M325.759 575.255C327.01 572.357 326.524 568.89 323.79 567.181C321.405 565.695 317.513 566.388 316.239 569.286C314.502 573.323 312.417 577.212 309.823 580.679C307.924 583.23 304.31 588.654 300.928 589.051C296.157 589.62 294.999 576.493 293.748 573.249C290.945 565.819 284.807 558.413 276.514 560.766C270.538 562.475 267.759 568.444 265.489 573.992C264.655 576.023 263.45 578.772 262.501 579.862C262.64 579.713 262.223 579.961 262.315 580.01C261.898 579.862 261.504 579.416 260.995 578.524C259.536 575.949 258.887 572.853 257.845 570.054C256.316 565.967 254.278 562.277 251.174 559.305C239.059 547.664 219.07 545.41 203.55 546.846C193.335 547.812 183.491 550.562 174.156 555.119C165.748 559.206 155.556 565.373 155.579 576.617C155.579 584.196 166.628 584.221 166.605 576.617C166.605 573.125 170.056 570.896 172.581 569.286C176.449 566.809 180.572 564.754 184.811 563.144C192.687 560.147 200.933 558.512 209.295 558.339C217.842 558.165 226.482 559.428 234.566 562.5C241.005 564.927 245.73 568.766 248.093 575.726C250.294 582.24 252.818 590.165 260.092 591.577C266.438 592.791 271.21 588.407 273.874 582.636C274.985 580.209 275.819 577.633 277.024 575.255C277.881 573.546 278.576 571.936 279.664 572.11C281.656 572.407 283 576.097 283.602 577.781C284.853 581.249 285.247 584.989 286.521 588.456C289.856 597.447 297.431 603.862 306.626 599.28C315.266 594.97 321.868 584.171 325.736 575.255L325.759 575.255Z" fill="black"/>
<path d="M160.721 236.135C166.559 235.962 171.956 237.547 177.746 239.132C180.109 239.801 182.726 238.711 183.977 236.432C185.135 234.327 184.973 230.934 183.12 229.274C181.985 228.284 180.92 227.194 179.947 226.03C179.715 225.757 179.507 225.485 179.275 225.188C179.229 225.138 179.229 225.113 179.206 225.089C178.789 224.494 178.418 223.9 178.047 223.256C177.306 221.993 176.658 220.655 176.079 219.318C176.009 219.095 175.662 218.178 175.592 217.955C175.337 217.163 175.106 216.37 174.92 215.578C174.735 214.859 174.596 214.141 174.457 213.423C174.388 213.051 174.341 212.705 174.272 212.333C174.272 212.333 174.272 212.308 174.272 212.259C174.133 210.698 174.063 209.138 174.133 207.578C174.156 206.959 174.202 206.315 174.272 205.695C174.272 205.77 174.434 204.531 174.503 204.234C174.805 202.599 175.268 201.014 175.824 199.479C176.866 196.581 174.689 192.89 171.979 192.222C168.829 191.454 166.304 193.262 165.192 196.333C161.972 205.349 162.574 215.751 166.257 224.593C164.057 224.346 161.833 224.246 159.61 224.395C152.776 224.866 146.314 227.219 141.218 232.222C139.017 234.376 139.18 238.389 141.218 240.568C143.395 242.897 146.823 242.723 149.024 240.568C151.943 237.72 156.552 236.259 160.768 236.135L160.721 236.135Z" fill="black"/>
<path d="M191.505 162.154C191.714 161.51 191.853 160.816 191.83 159.999C191.714 152.668 190.949 145.361 189.675 138.154C189.235 135.677 186.641 133.795 184.348 133.819C168.458 134.018 152.545 134.216 136.655 134.414C132.763 134.463 130.795 138.129 131.327 141.869C132.393 149.225 132.439 156.928 131.42 164.308C130.957 167.578 132.787 172.333 136.747 171.764C153.147 169.411 169.662 168.37 186.201 168.643C190.023 168.692 191.783 165.299 191.482 162.129L191.505 162.154ZM142.793 146.154C155.093 146.005 167.416 145.857 179.715 145.708C180.225 149.423 180.526 153.163 180.688 156.903C168.041 156.903 155.417 157.72 142.863 159.256C143.117 154.872 143.117 150.538 142.793 146.154Z" fill="black"/>
<path d="M216.684 134.835C218.537 134.389 220.39 133.968 222.266 133.646C222.799 133.547 223.308 133.473 223.841 133.398C223.911 133.398 223.934 133.398 223.957 133.398C224.026 133.398 224.073 133.398 224.165 133.398C225.069 133.299 225.972 133.175 226.876 133.101C230.651 132.754 234.45 132.68 238.249 132.853C241.144 133.002 243.9 130.03 243.761 126.959C243.761 126.81 243.715 126.686 243.715 126.538C243.715 125.572 243.507 124.606 242.974 123.739C238.503 116.061 234.01 108.383 229.539 100.68C227.316 96.8658 222.243 96.8906 220.019 100.68C215.178 108.903 211.704 118.117 209.897 127.627C209.063 132.086 212.422 135.925 216.684 134.884L216.684 134.835Z" fill="black"/>
<path d="M270.839 92.9525C265.211 94.8349 260.115 97.9061 256.918 103.355C255.32 106.055 256.385 109.844 258.887 111.429C261.528 113.089 264.84 112.024 266.438 109.324C267.99 106.674 271.117 105.188 274.383 104.148C278.205 102.934 281.819 101.72 285.085 104.494C288.559 107.442 291.756 111.281 294.628 114.897C297.338 118.315 299.515 122.104 300.581 126.389C302.388 133.72 313.019 130.6 311.213 123.243C309.614 116.779 306.233 111.281 302.202 106.253C298.542 101.696 294.327 96.5934 289.509 93.4479C283.695 89.6584 277.001 90.8968 270.839 92.9525Z" fill="black"/>
<path d="M492.117 525.843C492.349 532.778 489.708 539.292 487.392 545.658C485.284 551.429 482.875 557.125 479.632 562.277C478.057 564.778 475.996 567.28 473.633 569.459C470.738 566.537 467.263 564.233 463.627 562.673C455.612 559.23 444.633 560.122 441.506 570.302C438.379 580.531 447.714 586.401 455.844 587.466C460.569 588.085 465.364 587.292 469.834 585.484C470.622 595.664 455.288 598.017 448.617 598.041C436.271 598.091 424.319 592.766 415.633 583.428C410.629 578.029 402.823 586.376 407.827 591.775C419.2 604.01 435.599 610.921 451.767 609.732C459.48 609.162 467.263 607.131 473.425 601.856C479.47 596.679 482.458 588.233 480.096 580.159C480.003 579.887 479.887 579.614 479.795 579.342C486.558 573.472 491.307 565.447 494.851 556.976C498.881 547.342 503.537 536.593 503.166 525.843C502.911 518.264 491.863 518.24 492.141 525.843L492.117 525.843ZM453.435 574.834C451.999 574.165 451.281 574.091 452.74 572.952C454.686 571.441 458.415 573.001 460.314 573.893C461.264 574.339 462.237 574.884 463.187 575.528C459.99 576.37 456.678 576.271 453.435 574.809L453.435 574.834Z" fill="black"/>
<path d="M511.019 203.863C513.358 203.02 515.026 204.507 516.23 206.711C517.829 209.609 517.388 212.556 516.022 215.454C512.617 222.637 505.39 226.277 500.595 232.147C495.244 238.711 492.974 248.123 499.391 254.934C501.823 257.51 505.042 258.971 508.216 260.184C511.111 261.274 514.655 261.844 516.833 264.395C517.134 264.742 517.62 265.163 517.69 265.708C517.666 265.708 517.643 265.708 517.597 265.831C517.018 267.02 514.817 267.714 513.752 268.259C510.324 269.943 506.988 271.85 504.371 274.822C499.854 279.974 498.835 287.553 502.564 293.497C505.575 298.327 510.625 301.051 515.072 304.048C516.856 305.237 518.292 306.153 519.612 307.838C520.423 308.878 520.84 309.67 519.774 311.8C517.898 315.516 514.169 318.017 511.991 321.609C509.675 325.447 508.285 330.475 509.675 334.958C511.32 340.234 515.674 342.389 520.238 343.974C525.565 345.831 530.916 347.664 536.243 349.522C543.007 351.875 545.902 340.482 539.185 338.153C534.483 336.519 529.781 334.909 525.102 333.274C524.129 332.927 520.956 332.407 520.214 331.342C519.913 330.921 520.515 329.386 520.979 328.494C522.693 325.076 526.052 322.599 528.206 319.478C530.36 316.333 531.657 312.593 531.333 308.655C530.823 302.29 526.515 298.005 521.813 294.661C518.384 292.234 512.941 289.782 511.459 286.488C511.459 286.513 511.158 285.571 511.227 285.225C511.412 284.036 512.038 283.218 512.848 282.426C515.651 279.627 519.566 278.736 522.716 276.506C530.012 271.379 530.429 261.497 523.944 255.38C521.28 252.853 518.13 251.243 514.771 250.079C512.524 249.311 507.451 248.395 506.479 245.571C505.645 243.144 508.424 240.346 509.86 238.835C512.779 235.739 516.207 233.287 519.149 230.215C525.357 223.726 530.383 214.315 527.464 204.829C524.87 196.358 516.647 189.398 508.1 192.519C501.406 194.946 504.278 206.339 511.042 203.887L511.019 203.863Z" fill="black"/>
<path d="M513.636 402.401C514.702 411.714 516.207 420.902 518.13 430.042C515.559 428.333 512.964 426.624 510.393 424.915C506.201 422.141 501.128 426.698 502.286 431.577C504.139 439.28 506.108 446.983 508.1 454.636C507.081 454.042 506.085 453.472 505.066 452.878C501.753 450.946 496.287 453.274 496.773 457.98C497.26 462.686 497.746 467.391 498.232 472.097C494.92 468.952 491.724 465.683 488.643 462.265C483.709 456.791 475.903 465.138 480.837 470.611C487.485 477.992 494.688 484.655 502.355 490.772C505.552 493.323 511.088 489.93 510.648 485.67C510.046 479.949 509.467 474.252 508.864 468.531C510.625 469.571 512.408 470.587 514.169 471.602C518.292 474.004 523.666 470.017 522.276 464.939C520.261 457.583 518.338 450.203 516.462 442.822C518.964 444.481 521.465 446.141 523.99 447.8C528.09 450.5 533.394 446.017 532.097 441.138C528.692 428.457 526.144 415.503 524.639 402.401C524.291 399.231 522.369 396.506 519.126 396.506C516.416 396.506 513.242 399.231 513.613 402.401L513.636 402.401Z" fill="black"/>
</g>
</svg>
