<svg width="131" height="137" viewBox="0 0 131 137" fill="none" xmlns="http://www.w3.org/2000/svg">
<path d="M102.329 6.71718L94.9494 17.3648L103.045 43.7081L112.687 35.0419L102.329 6.71718Z" fill="#EFD55A"/>
<path d="M93.7079 15.9717L86.3285 26.6193L94.4245 52.9626L104.066 44.2963L93.7079 15.9717Z" fill="white"/>
<path d="M101.471 46.7291L94.5765 56.6419L102.11 81.1467L111.113 73.0756L101.471 46.7291Z" fill="#0BB677"/>
<path d="M110.646 33.8653L103.267 44.5129L111.363 70.8562L121.004 62.19L110.646 33.8653Z" fill="#F45727"/>
<path d="M120.007 64.1896L112.804 72.9793L119.32 93.7781L128.539 86.4932L120.007 64.1896Z" fill="#F45727"/>
<path d="M111.472 76.88L104.269 85.6698L110.784 106.469L120.004 99.1836L111.472 76.88Z" fill="#376ADA"/>
<path d="M22.8999 23.9192L17.1189 34.1336L39.14 29.8953L43.1015 19.3092L22.8999 23.9192Z" fill="white"/>
<path d="M49.4952 17.5764L43.7142 27.7908L65.7353 23.5525L69.6968 12.9664L49.4952 17.5764Z" fill="#0BB677"/>
<path d="M41.4018 31.8766L35.6207 42.091L57.6418 37.8527L61.6033 27.2666L41.4018 31.8766Z" fill="#EFD55A"/>
<path d="M69.7314 22.4695L63.9504 32.6839L85.9715 28.4455L89.9329 17.8595L69.7314 22.4695Z" fill="#F45727"/>
<path d="M78.267 9.77902L72.486 19.9934L94.5071 15.7551L98.4686 5.169L78.267 9.77902Z" fill="#376ADA"/>
<path d="M14.2284 39.2408L8.44735 49.4552L30.4685 45.2169L34.4299 34.6308L14.2284 39.2408Z" fill="#EFD55A"/>
<path d="M6.13495 53.541L31.7099 46.61L38.3434 70.7553L12.7684 77.6864L6.13495 53.541Z" fill="#0BB677"/>
<path d="M31.7099 46.61L60.4818 38.8126L67.5574 64.5676L41.9825 71.4987L31.7099 46.61Z" fill="#376ADA"/>
<path d="M58.8833 39.2458L87.6552 31.4483L94.2886 55.5937L68.7136 62.5248L58.8833 39.2458Z" fill="#376ADA"/>
<path d="M39.2278 73.9747L67.5574 64.5676L74.6331 90.3227L49.5004 98.8634L39.2278 73.9747Z" fill="#F45727"/>
<path d="M67.5574 64.5676L96.3293 56.7702L103.405 82.5253L77.83 89.4563L67.5574 64.5676Z" fill="#EFD55A"/>
<path d="M48.5653 101.711L76.4526 90.6944L83.9706 118.059L58.3956 124.99L48.5653 101.711Z" fill="#EFD55A"/>
<path d="M76.4526 90.6944L105.224 82.897L112.3 108.652L86.7252 115.583L76.4526 90.6944Z" fill="white"/>
<path d="M21.1708 108.271L49.5004 98.8634L56.576 124.619L31.0011 131.55L21.1708 108.271Z" fill="white"/>
<path d="M13.6528 80.9058L42.4247 73.1084L49.0581 97.2537L23.4832 104.185L13.6528 80.9058Z" fill="#F45727"/>
<path d="M130.563 83.4761C130.987 82.3891 130.695 81.1649 129.853 80.3842C121.419 51.1617 113.896 29.0118 105.261 3.65059C105.457 2.45626 104.888 1.21867 103.742 0.64559C103.11 0.330951 102.423 0.274096 101.788 0.431546C101.261 0.257789 100.68 0.238424 100.114 0.406544C85.424 4.71171 67.4097 9.69683 46.382 15.2851C45.6389 15.1845 44.8838 15.3892 44.2845 15.8388C37.2642 17.6971 29.9157 19.6224 22.2457 21.6127C22.232 21.6164 22.2251 21.6182 22.2182 21.6201C21.3944 21.8434 20.7684 22.4106 20.4186 23.124C19.6877 23.2558 19.0066 23.676 18.5624 24.3413L2.53836 48.4915C2.29291 48.86 2.16051 49.264 2.1024 49.67C0.933419 50.355 0.384208 51.7924 0.878681 53.109C12.6155 84.286 19.2892 105.437 26.3992 133.921C26.7809 135.445 28.3268 136.373 29.8465 135.998C29.8671 135.992 29.8877 135.987 29.9151 135.979C30.0936 135.931 30.2665 135.862 30.4287 135.781C31.1099 136.274 31.9948 136.461 32.846 136.231C32.9284 136.208 33.0177 136.184 33.1031 136.146C39.142 133.884 51.8992 130.382 65.4116 126.676C89.4658 120.076 106.405 115.287 113.324 111.77C113.847 111.93 114.395 111.936 114.903 111.798C115.631 111.601 116.279 111.116 116.665 110.4C119.431 105.218 121.541 101.06 123.579 97.0397C125.379 93.4961 127.23 89.8429 129.538 85.4915C130.146 84.9952 130.52 84.2607 130.576 83.4723L130.563 83.4761ZM15.0243 39.9754C15.1722 39.9501 15.3202 39.9247 15.4625 39.8788C19.4936 38.5507 23.7099 37.4669 27.789 36.4204L33.0525 35.0676L28.999 42.1673C28.9392 42.2718 28.8969 42.3864 28.8528 42.4941C21.4182 44.5089 14.8011 46.2507 10.0642 47.4534L15.0243 39.9754ZM76.9881 12.8813C84.1574 10.8942 90.8249 9.01359 96.9681 7.23828C95.7144 9.35999 94.3067 11.6192 92.841 13.9088C92.6131 13.9116 92.3909 13.935 92.1625 13.9896L73.438 18.8063L76.7329 13.4291C76.8394 13.2529 76.9216 13.0687 76.9881 12.8813ZM34.3855 46.9001C41.6585 44.9144 49.4761 42.7368 56.9854 40.5913C59.5595 47.5443 62.0468 54.5576 64.4574 61.6139C57.0359 64.0522 49.5725 66.3915 42.0808 68.628C39.6061 61.3388 37.0479 54.0943 34.3874 46.907L34.3855 46.9001ZM62.4665 39.0101C71.3799 36.4178 79.4969 33.9603 85.231 32.0382C87.5222 39.0089 89.7231 45.6507 91.8656 52.0801C84.5824 54.7534 77.2416 57.3245 69.8539 59.8053C67.4728 52.8294 65.013 45.8896 62.4665 39.0101ZM109.21 33.1387C107.757 35.0198 106.289 36.8977 104.805 38.7725C102.719 31.9303 100.683 25.1112 98.6735 18.3588C98.4639 17.6498 98.1298 17.1586 97.7709 16.792C99.1214 14.6735 100.428 12.5817 101.617 10.5733C104.222 18.232 106.734 25.6583 109.217 33.1369L109.21 33.1387ZM93.9934 22.5872C96.1244 29.7266 98.2793 36.9257 100.492 44.1461C99.247 45.6837 97.9987 47.2075 96.7348 48.7282C94.5791 42.2508 92.3594 35.5405 90.0475 28.4944C91.3065 26.6068 92.6409 24.6179 93.9846 22.5822L93.9934 22.5872ZM102.853 67.0249C101.54 63.1028 100.211 59.1258 98.8653 55.0871C100.088 53.6293 101.306 52.1578 102.522 50.6794C104.668 57.5497 106.876 64.4325 109.179 71.2824C108.007 72.6824 106.844 74.0874 105.683 75.4992C104.73 72.6499 103.784 69.8212 102.844 67.02L102.853 67.0249ZM106.833 45.373C108.354 43.4733 109.866 41.5687 111.361 39.654C113.612 46.5326 115.846 53.5338 118.106 60.8738C116.554 62.6345 115.014 64.414 113.483 66.1985C111.188 59.2657 108.981 52.3087 106.838 45.3643L106.833 45.373ZM88.3109 20.8579C87.4612 22.1411 86.6176 23.3932 85.8028 24.6155C85.8028 24.6155 85.8028 24.6155 85.7959 24.6174C84.8873 24.9078 84.2353 25.622 83.9662 26.4681C79.2212 28.0707 72.6176 30.1033 65.1989 32.2832L69.1796 25.7775L88.3109 20.8579ZM57.0762 34.6391C50.3495 36.5726 43.2938 38.5436 36.5807 40.3924L40.7487 33.0923L61.2568 27.8142L57.083 34.6373L57.0762 34.6391ZM28.88 48.3922C31.5586 55.6187 34.135 62.9025 36.6209 70.2328C29.5192 72.3047 22.4067 74.2838 15.2797 76.1564C12.8768 69.2086 10.2486 61.9241 7.28294 54.0022C11.6916 52.9473 19.5812 50.8975 28.8731 48.394L28.88 48.3922ZM17.1223 81.5478C18.9933 81.0554 20.8693 80.5544 22.7365 80.0484C27.9743 78.6289 33.209 77.144 38.4411 75.6229C40.788 82.689 43.0407 89.7881 45.2042 96.9113C38.1024 98.9832 30.99 100.962 23.8698 102.833C21.7808 95.7927 19.5688 88.8152 17.1223 81.5478ZM43.899 74.0113C51.3907 71.7748 58.8542 69.4355 66.2757 66.9971C68.6295 74.0613 70.9028 81.1548 73.075 88.283C65.6398 90.725 58.1626 93.0681 50.6572 95.3083C48.4937 88.1851 46.2459 81.0774 43.899 74.0113ZM71.674 65.1954C79.0549 62.7165 86.3956 60.1454 93.6651 57.4758C94.9454 61.3038 96.2038 65.079 97.4491 68.8061C98.5332 72.0541 99.6335 75.3345 100.745 78.6561C93.3834 81.3654 85.9466 83.9626 78.4715 86.4744C76.3011 79.3531 74.0278 72.2596 71.674 65.1954ZM102.545 84.0518C104.986 91.3796 107.509 98.9796 110.146 107.02C105.868 109.063 96.8466 111.906 86.5896 114.869C84.5452 107.213 82.3697 99.5631 80.1031 91.9303C87.6331 89.4036 95.128 86.776 102.545 84.0518ZM114.548 102.182C112.225 95.1243 109.997 88.409 107.825 81.8993C108.985 80.4582 110.154 79.0221 111.334 77.5978C113.432 83.6491 115.61 89.6712 117.899 95.641C116.841 97.7244 115.749 99.8687 114.548 102.182ZM115.597 72.4957C117.072 70.7486 118.564 69.0114 120.06 67.288C121.544 72.2093 123.051 77.3163 124.588 82.6432C123.422 84.8441 122.37 86.8671 121.39 88.7748C119.385 83.3833 117.463 77.9469 115.595 72.4889L115.597 72.4957ZM63.5288 16.5657C65.396 16.0597 67.2358 15.5611 69.055 15.0681L65.5171 20.8499L44.6708 26.2122L47.7578 20.803C53.216 19.3532 58.485 17.94 63.5307 16.5725L63.5288 16.5657ZM23.3136 27.4864C23.3871 27.3782 23.4431 27.2599 23.4922 27.1435C23.554 27.1267 23.6215 27.1306 23.6901 27.112C29.3087 25.6555 34.752 24.2319 40.0286 22.8461L36.9765 28.1944L26.3533 30.9261C24.2314 31.4717 22.0683 32.0284 19.9009 32.6232L23.3067 27.4883L23.3136 27.4864ZM31.4546 130.71C29.4724 122.823 27.5059 115.477 25.4534 108.302C27.3999 107.789 29.3464 107.276 31.2892 106.75C36.4721 105.345 41.6518 103.875 46.8221 102.371C48.9752 109.644 51.0353 116.928 52.9798 124.221C43.9284 126.74 36.0646 129.019 31.4478 130.712L31.4546 130.71ZM63.8886 121.213C62.0625 121.708 60.254 122.213 58.471 122.703C56.517 115.376 54.4475 108.058 52.2869 100.757C59.7855 98.519 67.2627 96.176 74.7048 93.732C76.9507 101.289 79.0967 108.859 81.1272 116.438C75.3708 118.064 69.4384 119.694 63.8973 121.218L63.8886 121.213Z" fill="black"/>
</svg>
