<svg width="152" height="137" viewBox="0 0 152 137" fill="none" xmlns="http://www.w3.org/2000/svg">
<g clip-path="url(#clip0_4_149)">
<path d="M141.856 67.6819C140.458 63.3463 139.236 58.4523 137.933 53.2635C136.592 47.9082 135.205 42.367 133.476 36.7924C133.458 36.7295 133.42 36.6759 133.395 36.6106C133.359 36.5089 133.315 36.4047 133.269 36.3077C133.228 36.2204 133.177 36.1377 133.123 36.0621C133.072 35.9794 133.014 35.8941 132.953 35.816C132.892 35.7379 132.829 35.6669 132.756 35.6005C132.685 35.527 132.622 35.4561 132.539 35.3943C132.466 35.3279 132.38 35.2733 132.302 35.2213C132.224 35.1692 132.141 35.1075 132.06 35.0626C131.965 35.0126 131.868 34.9697 131.763 34.9243C131.699 34.9014 131.649 34.8595 131.585 34.8366C123.616 31.9964 98.7511 24.0376 78.7808 17.6376C69.293 14.6028 61.0724 11.9713 56.4677 10.4591C55.4576 9.47031 53.8545 9.28592 52.6413 10.1112C50.5488 11.5261 48.5344 12.8801 46.5737 14.1968C38.2532 19.7852 31.0582 24.6138 23.3848 30.7392C22.4739 31.4627 22.1069 32.6057 22.3058 33.6762C21.4834 34.536 21.1997 35.8296 21.7041 36.993C33.4391 64.1926 44.9788 88.8636 58.0211 114.635C58.3649 115.321 58.9409 115.809 59.6031 116.077C59.8771 116.304 60.1858 116.478 60.5077 116.593C61.2945 116.873 62.1961 116.832 62.9882 116.397C88.6435 102.322 114.312 87.6222 139.283 72.7067C139.879 72.3467 140.303 71.8126 140.541 71.2122C141.706 70.4988 142.284 69.0599 141.851 67.6962L141.856 67.6819ZM83.5434 26.3974C83.8304 26.2256 84.0678 26.0119 84.2746 25.7712C88.7392 27.2011 93.3112 28.6693 97.7661 30.1039C98.1559 32.5163 100.128 46.3925 100.939 53.9779C88.0189 49.6714 74.0802 45.1228 61.7281 41.2123C68.696 35.8674 76.0166 30.8901 83.5434 26.3974ZM100.002 60.0453C89.6277 76.3739 77.6637 91.733 64.3789 105.799C61.5579 86.1622 59.4846 66.2597 58.1991 46.4768C70.9548 50.4989 85.8628 55.3365 100.002 60.0453ZM105.938 62.0316C115.06 65.0973 123.668 68.0443 130.924 70.5983C112.774 81.3741 94.2892 92.023 75.7265 102.394C86.8698 89.7899 96.9873 76.2639 105.938 62.0316ZM134.869 65.5466C127.918 63.0853 118.132 59.7345 107.244 56.08C106.808 50.6761 105.107 38.2587 104.226 32.1803C114.333 35.4441 123.221 38.3536 128.107 40.0469C129.591 44.9775 130.839 49.937 132.046 54.737C132.989 58.5156 133.899 62.1374 134.869 65.5466ZM49.9669 19.2437C51.4308 18.2579 52.9458 17.2418 54.4853 16.2023C59.0711 17.6996 67.306 20.3362 76.8199 23.3884C69.5592 27.9034 62.4986 32.8524 55.7891 38.1282C55.545 38.3153 55.3506 38.5443 55.1821 38.7906C55.012 38.7703 54.8465 38.7597 54.6662 38.768C54.493 38.7788 54.3291 38.8091 54.1697 38.849C44.6779 35.8934 36.6301 33.5008 31.4718 32.1622C37.4278 27.666 43.3248 23.697 49.9475 19.2529L49.9669 19.2437ZM28.6203 37.652C33.0342 38.7495 41.4831 41.2608 51.9916 44.5305C53.1276 62.946 54.9553 81.479 57.4234 99.8211C47.324 79.3881 38.0176 59.286 28.6275 37.6546L28.6203 37.652Z" fill="black"/>
<path d="M83.5441 26.3966C83.8311 26.2248 84.0685 26.0111 84.2752 25.7704C88.7398 27.2003 93.3118 28.6686 97.7667 30.1031C98.1566 32.5156 100.128 46.3917 100.94 53.9772C88.0195 49.6706 74.0808 45.122 61.7287 41.2115C68.6966 35.8666 76.0173 30.8893 83.5441 26.3966ZM100.003 60.0445C89.6283 76.3731 77.6643 91.7322 64.3795 105.798C61.5585 86.1614 59.4852 66.2589 58.1997 46.476C70.9555 50.4981 85.8634 55.3357 100.003 60.0445ZM105.938 62.0308C115.06 65.0965 123.668 68.0435 130.925 70.5975C112.774 81.3734 94.2898 92.0222 75.7271 102.393C86.8704 89.7891 96.9879 76.2631 105.938 62.0308ZM134.87 65.5458C127.919 63.0846 118.132 59.7337 107.245 56.0792C106.809 50.6753 105.107 38.2579 104.226 32.1795C114.334 35.4433 123.221 38.3528 128.108 40.0461C129.592 44.9768 130.839 49.9362 132.047 54.7363C132.99 58.5148 133.9 62.1366 134.87 65.5458ZM49.9675 19.2429C51.4315 18.2571 52.9465 17.241 54.486 16.2015C59.0717 17.6988 67.3066 20.3355 76.8205 23.3876C69.5598 27.9026 62.4992 32.8516 55.7897 38.1274C55.5457 38.3145 55.3512 38.5435 55.1828 38.7898C55.0126 38.7695 54.8471 38.7589 54.6668 38.7672C54.4936 38.778 54.3297 38.8083 54.1703 38.8482C44.6785 35.8926 36.6307 33.5 31.4724 32.1614C37.4284 27.6652 43.3255 23.6962 49.9481 19.2521L49.9675 19.2429ZM28.6209 37.6513C33.0348 38.7487 41.4837 41.2601 51.9923 44.5297C53.1282 62.9452 54.9559 81.4783 57.4241 99.8204C47.3246 79.3873 38.0182 59.2852 28.6281 37.6538L28.6209 37.6513Z" fill="#EFA3DA"/>
</g>
<defs>
<clipPath id="clip0_4_149">
<rect width="125.068" height="100.873" fill="white" transform="translate(33.865) rotate(19.6162)"/>
</clipPath>
</defs>
</svg>
