<svg width="168" height="149" viewBox="0 0 168 149" fill="none" xmlns="http://www.w3.org/2000/svg">
<g clip-path="url(#clip0_3_532)">
<path d="M89.1357 44.7481C89.7876 35.1211 91.6176 23.2578 99.963 16.8271C105.515 12.5514 113.528 11.3011 121.951 13.3942C128.332 14.976 134.211 18.1288 138.938 22.492C152.774 35.2881 155.173 56.0365 157.293 74.3547L157.453 75.7867C159.087 89.8515 161.321 104.024 164.123 117.923C164.413 119.386 163.47 120.819 161.994 121.111C161.634 121.179 161.302 121.173 160.973 121.111C160.967 121.153 160.962 121.196 160.956 121.238C160.687 122.296 159.836 123.05 158.823 123.241C158.45 123.311 158.062 123.302 157.673 123.21C149.29 121.109 140.792 123.224 131.792 125.46C126.101 126.879 120.224 128.334 114.252 128.702C113.624 128.738 112.983 128.776 112.339 128.801C108.429 128.987 104.724 129.162 102.383 131.08C102.074 131.856 101.421 132.49 100.552 132.709C100.485 132.721 100.432 132.731 100.365 132.744C100.365 132.744 100.365 132.744 100.352 132.746C99.4873 133.061 98.473 132.949 97.7062 132.322C96.7919 131.57 96.494 130.357 96.8749 129.306C89.8006 101.619 87.1925 73.1855 89.1357 44.7481Z" fill="white"/>
<path d="M17.4479 57.8241C18.4055 49.6705 19.849 41.0941 23.9174 33.6362C28.6098 25.0259 36.2245 19.547 44.2988 18.9885C55.7626 18.1903 65.434 27.262 69.9266 36.5939C74.622 46.3427 75.4449 57.4984 76.1703 67.3344L81.1488 134.854C81.2454 136.243 80.2884 137.458 78.9565 137.709C78.85 137.729 78.7567 137.747 78.6477 137.754C77.4637 137.839 76.4238 137.153 75.9696 136.135C75.8605 136.142 75.7406 136.164 75.629 136.158C59.4269 135.092 42.8015 137.264 27.4304 142.428C27.5119 143.736 26.6507 144.947 25.3422 145.249C23.8738 145.582 22.4322 144.668 22.089 143.215C15.6628 115.088 14.1026 86.3606 17.4504 57.8375L17.4479 57.8241Z" fill="white"/>
<path d="M100.368 132.757C100.368 132.757 100.488 132.735 100.554 132.722C101.999 132.339 102.866 130.865 102.496 129.417C95.2905 101.838 92.6126 73.4729 94.5442 45.1205C95.1201 36.6251 96.6338 26.2285 103.271 21.1271C107.512 17.8713 113.838 16.9669 120.655 18.6598C126.154 20.022 131.202 22.7245 135.263 26.4823C147.626 37.9013 149.804 56.7466 151.908 74.9849L152.068 76.4168C153.716 90.6307 155.98 104.963 158.811 119.009C159.101 120.471 160.494 121.422 161.999 121.138C163.462 120.848 164.418 119.412 164.128 117.95C161.326 104.05 159.079 89.8806 157.458 75.8133L157.298 74.3814C155.173 56.0365 152.774 35.2881 138.938 22.492C134.211 18.1288 128.332 14.976 121.951 13.3942C113.528 11.3011 105.502 12.5539 99.963 16.8271C91.6176 23.2578 89.801 35.1186 89.1357 44.7482C87.1631 73.6876 89.8959 102.636 97.2498 130.78C97.607 132.161 98.9827 133.019 100.368 132.757Z" fill="black"/>
<path d="M158.823 123.241C159.836 123.05 160.687 122.296 160.956 121.239C161.317 119.791 160.432 118.317 158.984 117.955C149.286 115.537 139.733 117.906 130.483 120.204C125.029 121.564 119.402 122.957 113.92 123.289C113.318 123.32 112.704 123.353 112.089 123.386C106.922 123.63 101.057 123.91 97.3195 128.519C96.3791 129.676 96.5519 131.395 97.7088 132.335C98.8656 133.276 100.572 133.105 101.525 131.946C103.743 129.224 107.926 129.027 112.355 128.812C112.999 128.787 113.64 128.749 114.267 128.713C120.24 128.345 126.117 126.89 131.808 125.471C140.807 123.235 149.292 121.123 157.689 123.221C158.078 123.313 158.48 123.32 158.839 123.252L158.823 123.241Z" fill="black"/>
<path d="M78.9458 137.725C80.2777 137.474 81.2479 136.256 81.138 134.87L76.1596 67.3503C75.4341 57.5143 74.6113 46.3586 69.9158 36.6098C65.4232 27.2779 55.7519 18.2062 44.2881 19.0044C36.227 19.5604 28.6124 25.0392 23.92 33.6495C19.8516 41.1075 18.4081 49.6839 17.4504 57.8375C14.1027 86.3606 15.6628 115.088 22.0891 143.215C22.4189 144.67 23.8763 145.595 25.3422 145.25C26.7973 144.92 27.709 143.465 27.3766 141.996C21.0768 114.467 19.5524 86.3665 22.8376 58.4621C23.731 50.8448 25.0561 42.8839 28.6826 36.2266C32.4337 29.3527 38.5573 24.8174 44.671 24.3945C53.5621 23.7784 61.4616 31.5017 65.0468 38.9496C69.2924 47.7764 70.0787 58.3734 70.7695 67.7332L75.7479 135.253C75.8646 136.748 77.1524 137.87 78.6477 137.754C78.7543 137.734 78.85 137.729 78.9566 137.709L78.9458 137.725Z" fill="black"/>
<path d="M76.3102 136.112C77.4957 135.888 78.4237 134.886 78.5171 133.627C78.621 132.131 77.4812 130.843 75.9857 130.739C58.5403 129.59 40.6146 132.035 24.1576 137.804C22.7485 138.304 22.006 139.851 22.4931 141.263C22.9936 142.672 24.5274 143.417 25.9523 142.927C41.7368 137.396 58.9091 135.052 75.6425 136.155C75.879 136.166 76.1105 136.15 76.3236 136.11L76.3102 136.112Z" fill="black"/>
<path d="M94.979 88.6409C94.4661 85.9237 93.9374 83.1958 93.4112 80.4811C93.2151 79.4422 93.4473 78.626 93.9004 78.0301C93.6894 76.4008 93.4809 74.7849 93.2833 73.1531C93.179 72.9659 93.0955 72.8161 93.0747 72.7787C92.2485 71.2518 91.4274 69.7515 91.138 67.9991C90.9434 66.822 90.9752 65.6021 91.2111 64.4403C88.2316 65.6096 86.0323 60.5348 89.0733 58.5952C101.404 50.6951 112.242 65.6572 116.714 76.124C122.522 89.7183 123.974 104.645 125.28 119.241C125.534 122.117 122.563 123.478 120.752 122.509C119.835 123.938 117.673 124.539 116.348 123.368C115.503 123.859 114.451 124.057 113.114 123.772C112.942 123.735 112.828 123.646 112.667 123.594C113.095 127.472 107.919 128.256 106.827 124.517C106.706 124.098 106.586 123.68 106.468 123.274C106.426 124 106.354 124.717 106.227 125.43C105.732 128.145 101.88 129.658 100.579 126.496C95.6196 114.397 96.673 101.343 94.984 88.6675L94.979 88.6409Z" fill="black"/>
<path d="M22.9099 135.432C23.0867 130.888 23.1812 126.346 23.2331 121.798C22.3992 118.038 21.7652 114.24 21.3309 110.405C20.2266 110.255 19.2515 109.473 19.0581 107.937C18.5982 104.258 18.3273 100.557 18.2478 96.848C18.2274 95.7897 18.7403 95.0721 19.455 94.62C19.533 93.0603 19.5978 91.5032 19.7025 89.9385C19.2913 85.9331 19.2073 81.9074 19.4156 77.8954C18.8504 77.3124 18.3417 76.6636 17.9943 75.8463C16.8228 73.0742 17.502 69.5113 17.6318 66.6177C17.7163 64.9465 19.0997 63.8715 20.6076 63.8214C20.9883 63.2805 21.5248 62.8344 22.3481 62.6652C35.3543 60.0999 41.2349 76.2737 43.8229 86.6962C47.4224 101.162 48.2478 116.497 49.9884 131.273C50.2535 133.554 48.4449 134.861 46.7704 134.832C46.0075 136.783 43.3808 137.045 41.9553 135.631C41.7533 135.876 41.5671 136.132 41.32 136.358C39.9917 137.505 37.5218 137.281 36.7335 135.444C36.6979 135.547 36.7046 135.656 36.669 135.76C36.1396 137.266 34.3897 138.3 32.8818 137.619C32.6094 137.491 32.3852 137.327 32.1236 137.183C31.8781 137.271 31.6433 137.343 31.3978 137.43C31.2938 137.464 31.238 137.461 31.1581 137.476C30.4025 139.246 27.9349 140.277 26.1176 138.468C26.236 138.584 26.341 138.702 26.4594 138.818C24.5251 139.459 22.8396 137.253 22.8991 135.448L22.9099 135.432Z" fill="black"/>
</g>
<defs>
<clipPath id="clip0_3_532">
<rect width="146.714" height="123.821" fill="white" transform="matrix(-0.982649 0.185477 0.185477 0.982649 144.169 0)"/>
</clipPath>
</defs>
</svg>
