<svg width="728" height="614" viewBox="0 0 728 614" fill="none" xmlns="http://www.w3.org/2000/svg">
<path fill-rule="evenodd" clip-rule="evenodd" d="M91.4393 282.079C91.4759 281.64 91.5124 281.202 91.5484 280.765L91.5014 280.726C91.7993 276.945 92.546 273.217 93.5713 269.564C95.2215 263.637 97.6163 257.89 100.001 252.167C100.541 250.87 101.081 249.574 101.612 248.278C103.092 244.651 104.71 241.068 106.497 237.55C110.018 230.602 114.2 223.911 119.245 217.663C126.641 208.532 134.386 199.234 144.465 191.839C151.047 187.007 158.068 182.442 165.491 178.407C169.516 176.214 173.808 174.321 178.297 172.713C191.763 167.891 204.997 163.719 219.793 161.527C234.17 159.402 248.922 158.015 263.688 157.16C283.06 156.038 302.754 156.329 322.456 157.952C340.655 159.453 358.934 161.515 377.055 164.586C375.805 173.127 375.595 181.861 376.475 190.597C378.841 212.722 390.378 237.475 410.973 252.174C418.514 286.113 443.899 315.993 483.338 337.048L483.379 337.069L483.447 337.106C483.544 337.158 483.645 337.212 483.748 337.256C508.75 348.54 527.236 351.844 541.03 351.849C559.514 378.853 588.218 398.522 619.969 405.501C620.044 405.512 620.12 405.523 620.191 405.553C639.818 409.167 656.749 407.268 669.991 400.102L669.978 400.109C670.23 399.973 670.481 399.835 670.73 399.695C670.678 399.833 670.626 399.971 670.573 400.109C670.329 400.742 670.087 401.376 669.844 402.01C667.183 408.971 664.526 415.918 660.012 422.153C655.296 428.672 649.808 434.925 643.877 440.754C640.681 443.883 637.195 446.822 633.536 449.623C623.821 457.039 613.179 463.884 601.93 469.87C594.381 473.893 586.375 477.388 577.99 480.33C565.422 484.746 552.804 489.05 539.287 491.803C525.769 494.556 511.577 495.992 497.485 496.963C488.46 497.58 479.308 497.67 470.106 496.791C469.158 496.701 468.206 496.611 467.251 496.521C458.815 495.725 450.153 494.908 441.767 493.297C434.824 491.958 428.335 489.84 421.618 487.648L421.348 487.56C420.562 487.303 419.776 487.048 418.992 486.794C413.288 484.945 407.649 483.118 402.346 480.456C396.032 477.282 389.968 473.633 384.091 469.968C382.455 468.929 380.869 467.831 379.37 466.665C372.737 461.464 366.228 455.689 361.3 449.411C357.196 444.183 353.728 438.562 350.557 433.019C349.528 431.211 348.619 429.358 347.784 427.505C346.837 425.395 345.954 423.279 345.072 421.166C343.567 417.562 342.067 413.968 340.262 410.434C338.603 408.304 336.823 406.22 334.938 404.2C331.71 401.575 328.288 399.081 324.725 396.728C319.98 394.306 315.091 392.125 310.076 390.188C302.928 388.236 295.69 386.707 288.366 385.575C279.557 384.924 270.772 384.764 262.058 385.048C252.527 386.299 242.864 387.223 233.152 387.692C219.274 388.352 205.665 386.911 191.598 385.2C178.355 383.595 165.045 379.474 152.895 374.501C151.05 373.747 149.244 372.901 147.49 371.98C141.639 368.878 135.818 365.553 130.358 362.005C128.613 360.872 126.962 359.645 125.438 358.345C120.661 354.272 115.929 349.995 111.73 345.547C106.031 339.517 101.745 332.477 98.2929 325.673C94.6587 318.516 92.5941 310.824 91.3977 303.376C90.2558 296.287 90.8604 289.03 91.4393 282.079ZM673.869 382.352C673.98 379.814 674.021 377.266 674.061 374.734C674.071 374.085 674.081 373.437 674.093 372.79C674.12 370.866 674.056 368.937 673.867 366.995C673.259 360.951 671.378 354.923 669.509 348.934C669.105 347.64 668.701 346.348 668.312 345.057C666.094 337.733 662.622 330.682 658.222 323.831C651.371 313.137 644.597 302.86 635.494 293.139C620.432 277.048 602.842 262.099 583.852 248.779C576.108 243.353 568.091 238.169 559.85 233.251C547.56 225.933 535.123 218.697 522.208 212.145C504.862 203.339 486.708 195.631 468.029 189.082C444.605 180.884 420.766 173.497 396.334 168.27C393.913 167.752 391.487 167.255 389.058 166.778C387.879 174.586 387.67 182.568 388.476 190.542C390.167 206.319 397.181 223.662 409.441 236.175C410.828 221.583 420.575 209.68 435.668 204.861L435.882 204.797C453.157 200.033 471.166 208.455 477.844 224.383C481.9 233.436 480.303 243.677 473.542 252.384C466.834 261.509 455.537 265.631 440.889 264.302C440.747 264.293 440.597 264.271 440.446 264.25L440.446 264.25C435.08 263.393 430.067 261.985 425.38 260.09C434.41 286.543 456.19 309.891 488.263 327.051C505.717 334.915 520.553 339.216 533.965 340.166C527.912 327.694 529.117 314.661 537.566 301.434C537.65 301.303 537.734 301.172 537.826 301.053C543.62 293.59 553.929 290.244 564.726 292.317C574.6 294.203 582.544 300.242 585.925 308.372C588.973 315.378 588.977 322.674 585.931 329.474C581.957 338.356 572.841 345.865 562.139 349.081C562.08 349.095 562.009 349.116 561.951 349.131C559.634 349.749 557.071 350.329 554.211 350.795C570.731 372.594 594.927 388.418 621.489 394.29C636.665 397.067 657.765 397.411 672.327 383.383C672.783 382.943 673.305 382.6 673.869 382.352ZM551.688 305.143C554.964 303.37 559.162 302.764 563.428 303.581C568.843 304.617 573.085 307.696 574.809 311.812C576.624 315.964 576.596 320.083 574.775 324.143C572.04 330.277 565.317 335.735 557.66 338.041C554.16 338.957 550.597 339.597 546.948 339.975C546.306 338.897 545.689 337.805 545.085 336.707C540.498 327.856 541.391 318.511 547.879 308.251C548.897 306.979 550.199 305.932 551.692 305.123L551.688 305.143ZM440.298 215.818C452.931 212.382 463.127 219.228 466.69 227.792C466.706 227.816 466.716 227.843 466.727 227.871C466.731 227.883 466.736 227.895 466.741 227.907C466.75 227.928 466.76 227.949 466.774 227.97C470.118 235.348 465.608 242.407 463.51 245.088C459.031 251.187 451.511 253.78 441.105 252.869C433.946 251.694 427.526 249.261 421.805 245.9C421.652 244.97 421.52 244.045 421.4 243.114C420.402 230.535 427.814 219.844 440.302 215.799L440.298 215.818Z" fill="#0BB677"/>
<path d="M377.155 164.706L388.945 166.81C391.385 153.558 397.156 140.825 405.046 129.686C416.214 113.899 431.898 102.404 449.962 96.5728C449.08 99.0175 448.335 101.517 447.733 104.061C447.488 105.092 447.259 106.148 447.043 107.196L447.04 107.207C446.505 109.73 445.998 112.118 445.158 114.231C444.032 117.06 445.639 120.443 448.717 121.776C450.555 122.577 452.514 122.466 454.038 121.642L454.046 121.654C455.074 121.098 455.888 120.217 456.339 119.092C457.446 116.309 458.054 113.5 458.642 110.78L458.713 110.454C458.912 109.482 459.132 108.515 459.353 107.549C460.574 102.415 462.471 97.4917 464.974 92.9011C465.775 91.4308 465.772 89.71 465.113 88.1846C465.076 87.8467 465.008 87.5043 464.905 87.1607C464.495 85.7852 463.608 84.6235 462.471 83.8119C462.074 83.522 461.638 83.2706 461.167 83.067C450.094 78.2668 438.748 73.8175 427.397 69.8454C424.227 68.7311 420.954 70.2143 420.091 73.1379C419.216 76.0683 421.087 79.3424 424.249 80.4441C430.103 82.4992 435.965 84.6794 441.786 86.9699C422.994 93.8045 406.726 106.16 394.982 122.747C386.178 135.191 379.824 149.861 377.155 164.706Z" fill="black"/>
<path d="M151.407 313.47C151.296 316.366 152.098 319.491 155.239 321.577C158.491 323.737 163.317 324.144 166.007 321.77C168.2 319.82 168.821 316.635 169.707 314.105C170.586 311.607 171.346 309.067 172.004 306.504C173.477 300.749 174.399 294.876 174.803 288.924C174.917 287.107 174.104 285.622 172.021 284.577C170.691 283.909 169.313 283.662 167.996 283.727C166.975 283.11 165.76 282.798 164.579 282.826C162.599 281.604 159.576 281.551 158.088 283.006C154.21 286.833 152.778 291.701 152.316 296.728C151.807 302.275 151.648 307.881 151.41 313.454L151.407 313.47ZM161.265 316.205C161.367 316.326 161.33 316.301 161.265 316.205ZM158.478 316.351C158.389 316.764 158.359 316.409 158.478 316.351Z" fill="black"/>
<path d="M239.809 316.091C237.23 314.375 233.803 314.716 232.355 316.876C231.82 317.674 231.344 318.5 230.867 319.327C230.346 319.364 229.822 319.417 229.304 319.538C226.282 320.281 224.688 322.526 223.792 324.805C222.027 329.236 221.177 333.782 221.11 338.561C221.11 338.76 221.154 338.952 221.202 339.129C220.874 340.651 220.55 342.157 220.264 343.688C219.837 346.068 219.744 348.685 221.183 351.035C222.71 353.57 225.36 355.75 228.882 356.358C236.468 357.642 239.99 351.996 241.479 347.256C243.006 342.442 244.812 337.622 245.934 332.704C247.213 327.057 246.182 320.332 239.809 316.091Z" fill="black"/>
<path d="M300.48 315.513C300.528 315.291 300.579 315.054 300.627 314.832C301.329 311.366 301.746 307.74 298.95 304.451C296.851 301.992 292.869 302.031 290.993 304C289.193 303.43 287.345 303.779 285.884 304.809C283.525 306.441 282.577 309.058 282.107 311.544C281.605 314.174 281.267 316.838 280.953 319.491C280.307 324.976 279.967 330.527 279.903 336.087C279.865 338.252 282.771 339.839 285.153 339.987C289.748 340.278 293.55 337.994 295.55 335.057C295.897 334.534 296.183 333.999 296.432 333.438C298.492 330.613 299.311 327.007 299.894 323.699C300.362 321.029 300.543 318.297 300.494 315.55L300.48 315.513Z" fill="black"/>
<path d="M334.672 373.913C335.048 372.07 335.358 370.229 335.631 368.363C335.963 366.128 336.311 363.914 334.406 361.845C332.395 359.671 328.839 358.922 325.949 359.645C325.721 359.712 325.513 359.783 325.306 359.854C324.557 359.163 323.588 358.606 322.546 358.382C319.81 357.793 317.587 359.09 316.97 361.064C314.683 368.419 313.083 375.954 312.208 383.596C311.785 387.354 310.659 391.889 313.581 395.487C317.041 399.765 323.95 399.725 327.117 396.126C328.584 394.468 329.228 392.566 329.951 390.598C330.663 388.678 331.311 386.76 331.9 384.813C333.015 381.221 333.925 377.585 334.655 373.893L334.672 373.913Z" fill="black"/>
<path d="M391.506 331.179C391.31 328.417 387.302 326.692 384.49 327.547C382.339 327.018 379.739 327.487 378.942 329.206C377.007 333.435 375.286 337.76 373.831 342.141C373.142 344.249 372.494 346.366 371.925 348.516C371.352 350.683 370.463 353.029 370.717 355.324C371.08 358.504 374.581 361.198 378.576 361.294C382.146 361.382 384.771 359.707 386.28 357.361C387.442 355.537 388.14 353.382 388.846 351.393C389.548 349.421 390.127 347.422 390.543 345.388C391.536 340.774 391.821 335.975 391.483 331.191L391.506 331.179Z" fill="black"/>
<path d="M294.796 233.778C294.6 231.015 290.592 229.29 287.78 230.145C285.629 229.616 283.029 230.085 282.232 231.805C280.296 236.033 278.576 240.358 277.12 244.74C276.432 246.848 275.784 248.964 275.215 251.115C274.642 253.281 273.753 255.628 274.007 257.922C274.37 261.102 277.87 263.796 281.866 263.893C285.436 263.98 288.061 262.306 289.57 259.959C290.731 258.136 291.43 255.98 292.136 253.992C292.838 252.019 293.417 250.021 293.833 247.987C294.826 243.373 295.111 238.573 294.772 233.789L294.796 233.778Z" fill="black"/>
<path d="M253.871 387.237C250.308 385.824 246.677 386.619 244.49 388.836C243.892 388.442 243.228 388.15 242.51 388.012C239.794 387.527 237.524 388.648 236.934 390.694C235.642 395.21 234.694 399.817 234.177 404.501C233.901 406.979 233.726 409.48 233.657 411.986C233.557 414.735 233.382 417.833 236.301 420.054C239.057 422.139 242.756 422.322 245.687 421.011C248.053 419.944 249.476 418.094 250.828 416.278C253.4 412.766 255.188 408.821 256.235 404.75C257.405 400.207 257.57 395.366 256.715 390.603C256.47 389.257 255.528 387.876 253.875 387.222L253.871 387.237Z" fill="black"/>
<path d="M165.066 361.199C160.53 360.738 158.177 363.333 156.749 366.295C155.789 366.586 154.966 367.138 154.519 367.922C150.203 375.769 148.457 384.584 149.48 393.53C149.748 395.86 153.069 398.101 155.952 397.311C167.743 394.041 170.454 383.626 171.813 374.528C172.448 370.285 172.819 362.004 165.046 361.195L165.066 361.199Z" fill="black"/>
<path d="M571.439 421.341C569.697 419.805 565.988 419.87 564.626 421.335C563.57 422.468 562.63 423.659 561.768 424.884C559.648 424.909 558.031 425.971 557.496 427.664C556.139 431.984 554.861 436.338 553.688 440.697C552.614 444.696 550.345 450.379 555.618 453.77C558.994 455.956 563.35 455.367 565.819 453.128C567.515 451.601 568.683 449.547 569.729 447.665C571.837 443.822 573.306 439.675 574.659 435.57C575.354 433.431 575.812 431.206 575.639 428.93C575.423 426.063 573.953 423.557 571.436 421.357L571.439 421.341Z" fill="black"/>
<path d="M365.838 476.321C364.096 474.785 360.386 474.849 359.024 476.315C357.968 477.448 357.028 478.639 356.167 479.864C354.046 479.889 352.429 480.951 351.894 482.644C350.538 486.964 349.259 491.318 348.086 495.677C347.012 499.677 344.743 505.36 350.017 508.75C353.392 510.936 357.749 510.347 360.217 508.108C361.913 506.581 363.081 504.527 364.127 502.645C366.236 498.802 367.704 494.655 369.058 490.55C369.753 488.411 370.21 486.186 370.037 483.91C369.821 481.043 368.352 478.537 365.834 476.337L365.838 476.321Z" fill="black"/>
<path d="M192.317 428.077C186.386 427.149 183.437 430.131 181.794 433.793C179.902 433.949 178.421 434.975 177.975 436.554C175.527 445.251 173.286 454.772 178.084 463.85C179.434 466.414 184.151 468.025 186.374 465.634C195.088 456.311 198.885 444.121 196.315 431.84C195.978 430.225 194.526 428.436 192.293 428.088L192.317 428.077Z" fill="black"/>
<path d="M462.922 369.137C461.255 367.153 458.491 366.89 456.184 367.688C453.719 368.518 451.972 369.983 450.658 371.724C448.418 371.807 446.454 373.093 445.84 374.952C445.373 376.427 445.301 378.054 445.1 379.587C444.864 381.278 444.632 382.953 444.396 384.644C443.942 387.848 443.331 391.084 443.439 394.359C443.573 398.004 445.096 401.251 448.253 404.153C450.465 406.188 454.553 405.26 455.707 403.368C458.885 398.229 461.325 392.748 463.032 387.094C463.851 384.383 464.485 381.633 464.915 378.839C465.427 375.565 465.469 372.19 462.918 369.153L462.922 369.137Z" fill="black"/>
<path d="M342.376 420.726C339.449 422.518 337.375 424.81 335.941 427.404C334.923 427.666 334.082 428.199 333.663 429.054C330.093 436.415 329.708 444.56 332.498 452.642C333.463 455.405 338.8 456.619 340.788 454.426C348.521 445.987 352.005 435.157 349.999 424.124C349.52 421.483 345.325 418.938 342.376 420.726Z" fill="black"/>
<path d="M218.554 290.921C220.616 292.161 223.744 292.618 225.368 290.927C235.638 280.13 243.69 265.737 235.815 251.104C235.022 249.623 233.474 248.477 231.446 248.273C229.333 248.067 227.93 248.827 226.861 250.123C225.444 251.842 224.327 253.659 223.427 255.556C223.087 255.449 222.76 255.379 222.427 255.34C220.065 255.098 217.862 256.2 217.477 258.091C216.341 263.67 215.29 269.25 214.358 274.872C213.488 280.01 211.97 286.966 218.551 290.937L218.554 290.921Z" fill="black"/>
<path d="M339.302 291.515C339.254 292.434 339.169 293.328 339.141 294.251C339.062 296.506 339.248 298.819 341.078 300.839C342.666 302.59 345.059 303.586 347.591 303.135C348.656 302.95 349.589 302.587 350.433 302.138C350.634 302.098 350.852 302.079 351.056 302.023C354.256 301.152 355.159 298.941 355.854 296.502C357.794 289.571 358.904 282.128 358.404 274.821C358.248 272.565 357.296 270.236 355.095 268.552C352.986 266.937 349.95 266.151 347.309 266.711C344.106 267.399 342.811 269.741 341.986 272.086C341.417 273.738 340.93 275.408 340.524 277.096C339.576 281.106 339.087 285.264 339.109 289.433C339.112 290.114 339.177 290.808 339.323 291.519L339.302 291.515Z" fill="black"/>
<path d="M99.1231 305.059C97.7686 304.901 96.4581 305.232 95.5014 305.906C94.4055 305.936 93.3469 306.189 92.4311 306.672C90.5315 307.657 89.4688 309.419 88.4675 310.995C86.7066 313.719 85.4324 316.663 84.5052 319.682C82.4872 326.381 82.7868 333.529 85.023 340.513C85.6619 342.508 88.9831 343.853 91.2365 343.309C91.8457 343.158 92.3666 342.922 92.8092 342.652C93.7146 342.515 94.5315 342.193 95.0968 341.651C104.437 332.596 107.424 320.1 103.488 307.906C102.999 306.407 100.893 305.274 99.1197 305.075L99.1231 305.059Z" fill="black"/>
<path d="M338.466 218.437C338.351 217.981 338.238 217.509 338.103 217.049C338.127 216.042 338.063 215.049 337.59 214.069C335.853 210.427 330.407 209.421 327.044 211.451C326.945 211.513 326.887 211.584 326.789 211.645C326.264 211.898 325.774 212.19 325.338 212.528C322.42 214.77 320.142 217.813 318.616 220.836C316.729 224.544 315.838 228.484 315.843 232.632C315.839 234.638 318.666 236.59 321.093 236.532C321.825 236.507 322.492 236.385 323.05 236.173C325.738 237.481 329.104 237.426 331.239 235.446C331.988 234.745 332.598 233.897 333.15 233.02C337.559 229.307 339.743 223.822 338.463 218.453L338.466 218.437Z" fill="black"/>
<path d="M46.9862 354.162C46.8707 353.705 46.7587 353.233 46.6227 352.773C46.647 351.766 46.5828 350.774 46.1102 349.793C44.3727 346.151 38.9276 345.145 35.5641 347.176C35.4653 347.237 35.4074 347.308 35.3087 347.37C34.7845 347.622 34.2942 347.914 33.8584 348.252C30.9406 350.494 28.6623 353.538 27.1361 356.56C25.2488 360.268 24.3587 364.208 24.3635 368.356C24.3592 370.362 27.1866 372.314 29.6133 372.256C30.345 372.231 31.0122 372.109 31.5704 371.897C34.2586 373.205 37.6246 373.15 39.7595 371.17C40.5086 370.469 41.1182 369.621 41.67 368.745C46.0792 365.032 48.2634 359.546 46.9828 354.178L46.9862 354.162Z" fill="black"/>
<path d="M46.4819 420.858C41.0881 419.515 36.9781 423.724 34.6828 426.747C34.4171 427.088 34.2332 427.447 34.0084 427.797C32.1434 427.628 30.3834 428.36 29.4809 429.676C25.6323 435.351 24.2812 442.426 25.99 449.18C26.4181 450.865 26.8733 452.622 27.703 454.227C29.1788 457.099 32.5406 458.752 36.1793 458.025C41.2883 457.017 44.5096 453.563 46.6997 450.036C50.259 444.315 53.5941 437.849 53.2977 431.083C53.1429 427.434 51.7533 422.175 46.4615 420.854L46.4819 420.858Z" fill="black"/>
<path d="M116.772 460.166C115.56 461.133 114.654 462.365 113.895 463.711C111.686 463.651 110.099 464.869 109.486 466.529C105.533 477.058 101.999 488.027 106.016 499.542C107.009 502.376 112.229 503.433 114.306 501.325C119.655 495.923 123.079 489.642 125.57 482.928C126.776 479.704 127.721 476.407 128.563 473.088C128.948 471.595 129.313 470.097 129.657 468.595C130.118 466.654 130.82 464.582 129.892 462.541C127.78 457.856 120.412 457.25 116.755 460.146L116.772 460.166Z" fill="black"/>
<path d="M516.566 373.859C514.588 373.218 512.832 373.636 511.419 374.643C507.81 377.218 504.409 380.318 502.828 384.092C502.187 385.58 501.778 387.184 501.624 388.793C501.491 389.213 501.334 389.643 501.222 390.067C500.278 393.563 498.995 399.027 504.181 401.337C506.774 402.492 509.875 402.479 512.104 401.25C514.113 400.156 515.213 398.419 516.184 396.687C517.717 393.931 518.869 390.96 519.52 387.932C520.253 384.523 520.425 380.943 519.991 377.399C519.812 375.851 518.41 374.422 516.572 373.827L516.566 373.859Z" fill="black"/>
<path d="M397.578 390.448C395.601 389.807 393.844 390.226 392.431 391.232C388.823 393.807 385.421 396.907 383.84 400.681C383.199 402.169 382.79 403.773 382.636 405.383C382.504 405.802 382.347 406.233 382.234 406.656C381.29 410.153 380.008 415.617 385.193 417.927C387.786 419.082 390.887 419.068 393.117 417.839C395.125 416.745 396.225 415.008 397.196 413.276C398.729 410.52 399.881 407.549 400.532 404.521C401.266 401.112 401.437 397.533 401.003 393.989C400.824 392.44 399.422 391.011 397.585 390.417L397.578 390.448Z" fill="black"/>
<path d="M320.574 515.223C320.122 513.251 318.881 511.276 316.451 510.255C313.198 508.892 310.1 510.084 308.472 512.189C307.59 513.309 306.838 514.524 306.15 515.737C305.053 517.657 304.211 519.683 303.492 521.734C303.352 521.887 303.209 522.055 303.104 522.248C299.885 527.677 299.701 534.39 302.786 540.411C303.551 541.92 305.15 543.027 307.154 543.242C309.22 543.471 310.735 542.685 311.74 541.392C315.193 536.959 317.666 532.016 319.17 526.816C319.909 524.271 320.367 521.648 320.572 519.005C320.668 517.765 320.883 516.468 320.577 515.207L320.574 515.223Z" fill="black"/>
</svg>
