<svg width="74" height="70" viewBox="0 0 74 70" fill="none" xmlns="http://www.w3.org/2000/svg">
<path d="M31.7841 69.9598C31.3776 69.9598 30.9642 69.9259 30.5509 69.8582C27.2171 69.2892 24.4389 66.6203 22.2977 61.9261C18.0355 52.5918 17.3105 41.9367 19.8177 32.108C18.6996 31.898 17.5273 31.8302 16.2941 31.9251C6.26555 33.1579 1.86787 44.2059 2.84362 53.9737L0.146766 54.2446C-0.964505 43.2034 4.22594 30.6787 16.023 29.2291C17.629 29.1072 19.14 29.2088 20.563 29.4933C22.318 23.993 25.103 18.8246 28.8772 14.381C34.5555 7.45822 40.8776 6.0967 48.1415 10.2829C48.8327 7.8782 50.0795 5.71737 51.7938 4.03747C54.5449 1.34151 58.5292 -0.114844 62.7236 0.00708414C66.918 0.135786 70.8006 1.85632 73.3823 4.71485L71.3698 6.53022C69.2828 4.21359 66.098 2.82497 62.6422 2.71659C59.1865 2.61498 55.9204 3.79362 53.6911 5.97477C52.1258 7.50564 51.0349 9.55809 50.5402 11.8408C52.5324 13.2362 54.694 15.0177 55.7646 17.6121C56.8691 20.2877 56.3744 24.0743 53.6505 25.788L52.7628 26.3435L52.0039 25.6255C49.1986 22.9837 47.5723 19.0617 47.5317 14.8755C47.5317 14.2862 47.552 13.7036 47.6062 13.1279C41.1622 9.04329 35.9853 10.0052 30.9642 16.1219C27.4339 20.2877 24.8184 25.1174 23.165 30.2587C31.6961 33.5305 36.5342 43.454 38.4518 48.304C40.2203 52.4496 41.7585 56.9271 40.9521 61.3977C40.1661 65.7126 36.3241 69.9733 31.7841 69.9733V69.9598ZM22.4196 32.8599C20.0819 42.079 20.7731 52.0567 24.7642 60.7949C26.5124 64.622 28.6129 66.7693 31.0049 67.1825C34.4132 67.7583 37.6522 64.3443 38.2824 60.8965C39.0006 56.9474 37.4489 52.8492 35.9446 49.3201C34.1896 44.8833 29.8258 35.8471 22.4128 32.8599H22.4196ZM50.2421 14.9771C50.2963 17.9169 51.2856 20.6671 52.9932 22.7195C53.7588 21.5951 53.7792 19.8949 53.2574 18.6349C52.6544 17.1718 51.4889 15.9796 50.2353 14.9771H50.2421Z" fill="black"/>
</svg>
