<svg width="141" height="174" viewBox="0 0 141 174" fill="none" xmlns="http://www.w3.org/2000/svg">
<path d="M59.5017 173.815C55.4699 173.815 51.3772 173.408 47.2913 172.595C42.3448 171.606 37.7099 169.642 33.8272 167.854C30.6831 166.404 27.634 164.568 24.7541 162.408C21.3187 159.827 17.375 156.758 13.9938 153.012C13.2484 152.186 12.5166 151.346 11.8186 150.52C9.48768 149.09 7.59718 147.18 6.20131 144.843C6.18099 144.809 6.16065 144.775 6.14709 144.742C4.53439 141.409 3.30792 138.354 2.41349 135.401C1.97304 134.276 1.64104 133.328 1.37677 132.434C0.739823 130.3 0.495876 128.092 0.26549 125.951L0.218053 125.511C0.089308 124.332 0.0418608 123.242 0.0757411 122.171C0.0757411 121.982 0.0961023 121.792 0.109654 121.602L0.123178 121.359C-0.0191186 118.981 -0.039417 116.989 0.0689997 115.1C0.346818 110.006 1.09218 104.81 2.27122 99.6554C3.8026 92.9765 6.25553 86.494 8.62037 80.2282C9.13535 78.8667 9.65029 77.5119 10.1517 76.1504C11.4121 72.75 12.8554 68.7196 14.0141 64.5741C15.0169 60.9975 15.8097 57.0416 16.5212 52.1306C16.6635 51.1349 16.8058 50.1459 16.9413 49.1502C17.3886 45.9326 17.8493 42.5999 18.5066 39.335C19.3875 34.9524 20.8579 30.5426 23.2566 25.0356C25.0658 20.8968 27.6949 16.9341 31.2862 12.9241C33.2851 10.6955 35.6703 8.93432 37.981 7.22733L38.0487 7.17314C39.5598 6.05547 41.247 5.08683 43.0562 4.30107C45.8344 3.08857 48.7007 1.83542 51.8312 1.18513C55.104 0.507757 58.2685 0.114877 61.2228 0.0200445C66.0474 -0.128978 71.2785 0.555171 76.3537 1.99798C84.485 4.31461 92.623 8.48725 101.235 14.7598C110.092 21.2152 116.82 27.1422 122.404 33.4147C130.04 41.9971 135.122 50.4914 137.934 59.3921C139.256 63.5715 140.069 68.2319 140.496 74.0641C140.76 77.6745 140.631 81.5356 140.123 85.5389C139.547 90.0366 138.748 95.3405 137.216 100.563C135.766 105.521 133.781 110.263 131.87 114.7C128.936 121.514 125.162 128.396 120.649 135.163C114.706 144.071 109.143 150.655 103.139 155.891C95.015 162.977 86.4839 167.935 77.0517 171.051C71.5089 172.88 65.573 173.808 59.4949 173.808L59.5017 173.815ZM8.55937 143.509C9.75873 145.5 11.385 147.112 13.4043 148.311C13.533 148.393 13.655 148.487 13.7498 148.603C14.4681 149.456 15.227 150.33 16.0062 151.19C19.2249 154.753 23.0465 157.727 26.3804 160.233C29.1043 162.286 31.9977 164.02 34.9656 165.388C38.706 167.115 43.1511 169.005 47.8198 169.933C57.6112 171.884 67.4297 171.383 76.2047 168.484C85.2846 165.483 93.5175 160.701 101.364 153.859C107.178 148.786 112.592 142.371 118.399 133.673C122.824 127.042 126.517 120.302 129.39 113.643C131.267 109.281 133.218 104.627 134.628 99.8179C136.105 94.7783 136.877 89.6031 137.447 85.2137C137.934 81.3865 138.056 77.7084 137.806 74.2809C137.392 68.6654 136.62 64.2015 135.36 60.2253C132.663 51.6971 127.77 43.5212 120.391 35.2301C114.937 29.1066 108.35 23.3015 99.6565 16.9612C91.3017 10.8784 83.4415 6.83445 75.6287 4.61266C70.8177 3.24436 65.8712 2.59407 61.3244 2.73632C58.5259 2.82438 55.5174 3.19694 52.4004 3.84722C49.5477 4.44331 46.8101 5.6355 44.1607 6.79381C42.5141 7.51183 41.0505 8.35177 39.6817 9.36107L39.614 9.41526C37.3101 11.1155 35.135 12.7209 33.3258 14.7394C29.9242 18.5327 27.451 22.2583 25.7638 26.1261C23.4396 31.4503 22.0234 35.6907 21.1831 39.8769C20.5462 43.0606 20.0854 46.3458 19.645 49.5295C19.5027 50.5253 19.3672 51.5278 19.2249 52.5235C18.4998 57.5564 17.6799 61.6207 16.6432 65.3124C15.4574 69.546 13.987 73.6441 12.7063 77.0987C12.1981 78.467 11.6831 79.8286 11.1681 81.1901C8.83039 87.3678 6.41136 93.7622 4.92063 100.265C3.77548 105.264 3.05046 110.311 2.77942 115.249C2.67778 117.05 2.69808 118.967 2.84038 121.277C2.84038 121.331 2.84038 121.379 2.84038 121.433L2.82007 121.785C2.80652 121.948 2.79972 122.104 2.79294 122.266C2.75906 123.201 2.8065 124.163 2.92169 125.213L2.96913 125.653C3.19274 127.672 3.42312 129.758 3.98553 131.661C4.23625 132.501 4.54795 133.389 4.96807 134.466C4.98162 134.5 4.99516 134.534 5.00194 134.567C5.85572 137.385 7.02122 140.312 8.57293 143.509H8.55937Z" fill="black"/>
</svg>
