<svg width="76" height="47" viewBox="0 0 76 47" fill="none" xmlns="http://www.w3.org/2000/svg">
<path d="M23.4398 46.2664C23.3721 46.2664 23.3111 46.2664 23.2433 46.2529C22.5048 46.1445 21.9898 45.4603 22.0982 44.7152C23.2975 36.4309 29.789 29.1559 37.8864 27.0221C40.7459 26.2703 43.2327 26.3244 45.2723 27.1915C46.5258 27.7266 47.5829 28.553 48.3622 29.2168C52.0822 32.3937 54.9214 36.5054 56.5747 41.1048C56.8254 41.8093 56.4595 42.5883 55.7616 42.8389C55.0569 43.0895 54.2776 42.7237 54.0269 42.026C52.5294 37.8669 49.9613 34.1481 46.6004 31.2761C45.9295 30.7071 45.1232 30.0703 44.2152 29.6842C42.738 29.061 40.8407 29.0407 38.5775 29.6368C31.5033 31.4996 25.825 37.8534 24.7815 45.0946C24.6866 45.7719 24.1039 46.2529 23.4398 46.2529V46.2664Z" fill="black"/>
<path d="M12.0154 44.6001C11.2972 44.6001 10.7009 44.0378 10.6602 43.3131C10.3485 36.8441 14.0889 31.1745 17.7954 26.4802C20.7362 22.7547 24.3817 18.5888 29.1182 15.947C34.5797 12.9056 41.166 12.1199 47.1899 13.793C53.2138 15.4661 58.4517 19.5371 61.5551 24.9629C63.5947 28.5259 64.645 32.4818 65.6614 36.309C66.156 38.1718 66.671 40.1023 67.2809 41.9244C67.518 42.6357 67.1386 43.4011 66.4271 43.6382C65.7156 43.8753 64.9499 43.4959 64.7128 42.7847C64.069 40.8745 63.5473 38.9033 63.0391 36.9999C62.0227 33.1727 61.0605 29.5555 59.1971 26.3041C56.446 21.4948 51.7976 17.8843 46.4581 16.4009C41.1186 14.9174 35.2776 15.6151 30.4327 18.3111C26.1096 20.7158 22.6945 24.6378 19.9231 28.1534C16.535 32.4547 13.1064 37.596 13.3706 43.1776C13.4045 43.9227 12.8285 44.5594 12.0832 44.5933C12.0628 44.5933 12.0425 44.5933 12.0154 44.5933V44.6001Z" fill="black"/>
<path d="M1.35672 45.2774C1.30251 45.2774 1.25505 45.2774 1.20084 45.2707C0.455477 45.1826 -0.073061 44.512 0.00825154 43.7669C2.10205 25.6335 12.2594 10.0132 26.5162 3.00236C29.8364 1.36988 32.8856 0.42833 35.8468 0.116737C42.0672 -0.526771 48.1318 1.61374 53.4781 3.51039C56.3511 4.52646 59.6036 5.678 62.1582 7.92012C64.008 9.54582 65.3158 11.5576 66.4542 13.5017C71.8411 22.6937 75.0191 33.1727 75.6425 43.8075C75.6832 44.5527 75.114 45.1962 74.3686 45.2368C73.6165 45.2842 72.9795 44.7084 72.9389 43.9633C72.3358 33.7553 69.2866 23.6894 64.1165 14.87C63.0933 13.1291 61.9346 11.3273 60.3761 9.95902C58.2145 8.06237 55.3482 7.0463 52.5768 6.06411C47.5016 4.26228 41.7419 2.22338 36.1314 2.8127C33.4955 3.09042 30.7376 3.94392 27.7155 5.43415C14.2786 12.0453 4.6973 26.8528 2.70515 44.0785C2.62383 44.7694 2.04107 45.2774 1.36346 45.2774H1.35672Z" fill="black"/>
</svg>
