<svg width="61" height="71" viewBox="0 0 61 71" fill="none" xmlns="http://www.w3.org/2000/svg">
<path d="M1.42442 39.8947C1.05852 39.8947 0.692623 39.7457 0.421581 39.4544C-0.0798466 38.8989 -0.0460458 38.0454 0.50959 37.5374C13.4925 25.6901 26.184 13.2061 38.2318 0.423953C38.7468 -0.117949 39.6006 -0.145055 40.1495 0.369751C40.6916 0.884557 40.7187 1.73806 40.2037 2.28674C28.1085 15.1163 15.3626 27.6545 2.33231 39.5492C2.07482 39.7863 1.74289 39.9014 1.41764 39.9014L1.42442 39.8947Z" fill="black"/>
<path d="M32.9802 26.4894C32.8244 26.4894 32.6618 26.4623 32.5059 26.4013C31.808 26.1371 31.4489 25.3582 31.7132 24.6537L33.4004 20.1695C33.9696 18.6521 34.5659 17.0806 35.108 15.5158C36.7478 10.8419 38.0691 6.01229 39.0381 1.16228C39.1872 0.430708 39.8986 -0.0502339 40.6304 0.0987889C41.3622 0.247812 41.8434 0.959041 41.6943 1.69061C40.6982 6.66933 39.343 11.6209 37.6626 16.41C37.1069 18.0018 36.5106 19.5869 35.9279 21.1178L34.2406 25.602C34.0373 26.1439 33.5225 26.4826 32.9736 26.4826L32.9802 26.4894Z" fill="black"/>
<path d="M34.0036 27.0177C33.3192 27.0177 32.7297 26.4962 32.6552 25.7985C32.5806 25.0534 33.1227 24.3895 33.8681 24.315C42.4127 23.4412 51.0861 23.4073 59.6374 24.2066C60.3828 24.2744 60.9317 24.9382 60.8572 25.6833C60.7894 26.4284 60.1254 26.9703 59.38 26.9026C50.9981 26.1168 42.5077 26.1507 34.1392 27.011C34.0918 27.011 34.0442 27.0177 33.9968 27.0177H34.0036Z" fill="black"/>
<path d="M1.35659 40.3282C0.672208 40.3282 0.0894748 39.8134 0.00816224 39.1225C-0.0731503 38.3773 0.462171 37.7067 1.20754 37.6254C9.64372 36.7042 18.2223 36.4739 26.6923 36.9278C27.4377 36.9684 28.0136 37.6051 27.9729 38.3502C27.9323 39.0954 27.2953 39.6779 26.5499 39.6305C18.2221 39.1834 9.79275 39.4137 1.50564 40.3147C1.45821 40.3147 1.40402 40.3214 1.35659 40.3214V40.3282Z" fill="black"/>
<path d="M17.3819 69.1302C17.2125 69.1302 17.0431 69.0964 16.8805 69.0354C16.1825 68.7577 15.8436 67.9719 16.1215 67.2742C19.916 57.7639 23.2296 47.9419 25.9739 38.0793C26.1771 37.3613 26.9225 36.9345 27.6407 37.1378C28.359 37.341 28.7858 38.0861 28.5825 38.8041C25.8111 48.7615 22.4706 58.6783 18.6353 68.2767C18.4253 68.8051 17.9172 69.1302 17.3751 69.1302H17.3819Z" fill="black"/>
<path d="M17.897 70.126C17.5514 70.126 17.2125 69.9973 16.9482 69.7331C16.4129 69.2047 16.4129 68.3512 16.9347 67.8161C30.7172 53.8554 44.4318 39.4544 57.7129 25.033C58.2211 24.4843 59.0749 24.4437 59.6306 24.9517C60.1794 25.4598 60.2202 26.3132 59.712 26.8687C46.4106 41.3171 32.6687 55.7385 18.8659 69.7263C18.6016 69.9973 18.2492 70.1327 17.9036 70.1327L17.897 70.126Z" fill="black"/>
</svg>
