<svg width="148" height="209" viewBox="0 0 148 209" fill="none" xmlns="http://www.w3.org/2000/svg">
<path d="M85.3195 208.971C84.3641 208.971 83.4155 208.937 82.4736 208.876C76.1787 208.456 69.9108 206.227 64.8355 202.603C59.3266 198.675 55.6675 193.499 54.2513 187.627C52.6183 180.846 53.8312 173.849 57.951 166.526C57.7342 166.506 57.5242 166.486 57.3073 166.465C49.3387 165.693 39.1136 162.489 34.3094 155.797C31.7345 152.213 30.9688 148.075 32.0394 143.495C32.7035 140.657 34.0723 137.948 36.1254 135.428C38.9714 132.061 41.7834 128.925 44.548 126.012C35.319 123.059 26.3069 115.276 25.6361 104.797C25.548 103.374 25.6022 101.945 25.8055 100.516C18.074 99.8386 10.0038 97.2171 5.16566 90.1724C1.14746 84.3266 0.429189 76.9161 3.07862 68.7537C3.79011 66.559 4.73873 64.3305 5.89066 62.1154C4.72518 61.4177 3.6478 60.571 2.72626 59.5482C0.544368 57.1232 -0.329732 54.1224 0.110711 50.6339C0.327544 48.9472 0.92384 47.2064 1.89281 45.452C15.8582 20.1587 42.4814 2.74338 71.3812 0L71.6386 2.69596C43.6197 5.35128 17.803 22.2315 4.27121 46.7593C3.47164 48.2089 2.97697 49.6246 2.80756 50.9726C2.46876 53.6415 3.11926 55.9175 4.75229 57.7328C5.44344 58.505 6.27691 59.1689 7.21878 59.7379C9.40067 56.0394 12.1382 52.4154 15.2959 49.0895C34.1536 29.2085 60.5802 15.959 87.7996 12.7415C93.2543 12.0031 100.444 13.5543 102.991 17.8895C104.076 19.732 104.726 22.787 101.684 26.8444L101.636 26.9054C81.7485 50.4172 51.4528 64.7979 20.5879 65.3872C18.5619 65.4278 13.1614 65.3127 8.35037 63.3347C3.84429 72.0119 2.44165 81.4071 7.41527 88.6415C11.7519 94.9547 19.1988 97.2781 26.3679 97.8538C27.9264 92.042 31.9039 86.1284 38.3954 79.9372C53.716 65.333 73.597 55.0775 94.3859 51.0742C97.0624 50.5594 103.757 49.6856 108.067 52.7067C109.984 54.0547 111.15 55.9649 111.536 58.3899C112.078 61.8445 110.777 65.3872 108.053 67.8596C89.2429 84.9295 64.9914 96.3433 39.7642 100.001C36.6539 100.455 32.7102 100.814 28.543 100.679C28.3397 102.006 28.2787 103.32 28.36 104.628C28.9766 114.368 37.9346 121.508 46.6825 123.811C75.2232 94.6499 99.2849 88.418 115.1 88.6754C117.445 88.8176 119.369 90.1385 120.311 92.2181C121.253 94.2908 120.989 96.6142 119.593 98.4228C109.761 111.212 93.4033 117.958 80.2443 122.402C69.8769 125.904 58.8116 128.871 48.0852 126.9C47.909 126.866 47.7328 126.832 47.5566 126.798C44.5006 129.975 41.3836 133.423 38.2192 137.162C36.4506 139.336 35.2581 141.68 34.6889 144.112C33.808 147.898 34.4246 151.299 36.5252 154.218C40.8076 160.173 50.206 163.058 57.5851 163.769C58.2356 163.83 58.8861 163.891 59.5366 163.939C63.0331 158.554 68.0745 152.986 74.6811 147.187C105.078 120.526 124.085 115.947 137.244 114.931C141.412 114.511 145.179 115.77 146.812 118.141C147.693 119.422 148.418 121.623 146.812 124.841C138.844 139.465 125.671 151.089 108.697 158.499C94.1284 164.86 77.317 167.752 60.9596 166.757C56.6772 173.869 55.3423 180.575 56.894 186.997C59.6993 198.634 71.9774 205.455 82.6633 206.173C92.6444 206.844 103.256 203.728 116.042 196.372L117.397 198.722C105.309 205.672 95.0364 208.971 85.3331 208.971H85.3195ZM62.6537 164.135C78.0963 164.833 93.8777 162.008 107.606 156.013C124.024 148.847 136.75 137.636 144.4 123.587C145.186 121.996 145.254 120.668 144.569 119.679C143.519 118.155 140.605 117.315 137.468 117.626C113.176 119.496 92.1024 135.496 76.4565 149.226C70.5545 154.401 65.9604 159.36 62.6537 164.128V164.135ZM49.8469 124.448C60.0584 125.931 70.4122 122.863 79.3701 119.835C92.1633 115.513 108.046 108.99 117.431 96.7768C118.204 95.7743 118.353 94.4873 117.831 93.3425C117.309 92.1978 116.245 91.4662 114.978 91.3849C99.9964 91.141 77.1544 97.0478 49.8469 124.448ZM29.1325 97.9893C32.9203 98.0706 36.5049 97.7319 39.3576 97.3187C64.0563 93.7354 87.7995 82.5587 106.217 65.8478C108.263 63.9918 109.246 61.3636 108.839 58.8098C108.575 57.1164 107.802 55.8429 106.495 54.9217C104.096 53.235 99.7593 52.7947 94.8873 53.7295C74.6066 57.638 55.2 67.6428 40.252 81.8948C34.3501 87.5238 30.6707 92.8413 29.1325 97.9893ZM9.66492 60.93C13.0462 62.2577 17.105 62.7319 20.5202 62.6709C50.6058 62.0951 80.1358 48.0802 99.5289 25.1781C101.236 22.8886 101.609 20.8971 100.647 19.251C98.9936 16.4332 93.3763 14.7126 88.1384 15.4239C61.5153 18.5737 35.6917 31.5183 17.2608 50.9455C14.4014 53.9598 11.7926 57.3603 9.67849 60.93H9.66492Z" fill="black"/>
</svg>
