<svg width="254" height="216" viewBox="0 0 254 216" fill="none" xmlns="http://www.w3.org/2000/svg">
<path d="M71.2568 197.888C71.1958 197.888 71.1349 197.888 71.0739 197.888C59.4462 197.827 48.6994 192.977 42.3299 184.916C35.8723 176.747 34.5307 165.388 38.698 156.765C30.6345 158.065 21.9882 155.945 14.5413 150.756C6.14581 144.911 0.880785 136.281 0.101539 127.089C-0.677706 117.897 3.05589 108.508 10.3469 101.328C16.6893 95.0827 24.6648 91.5536 32.6808 91.3436C26.4875 84.6308 22.8014 75.3169 22.4354 65.251C21.9882 52.9634 26.3248 41.2583 34.3274 33.1434C49.3499 17.9024 75.4579 15.308 94.6816 26.837C95.7929 19.6636 99.879 13.0659 106.35 8.06013C114.759 1.55732 126.19 -1.31476 136.192 0.56835C152.522 3.63687 167.206 16.6086 175.676 35.3923C198.314 25.5229 228.176 36.3067 239.011 58.5721C242.061 64.8446 243.233 72.2822 242.23 78.9882C241.268 85.3759 238.395 90.5375 234.038 93.816C245.022 98.517 251.805 112.525 248.796 125.456C245.991 137.534 236.084 148.013 222.295 153.486C210.349 158.235 197.359 158.878 185.013 158.743C185.094 166.668 179.233 173.415 173.067 176.734C166.257 180.398 158.553 181.198 150.598 181.753C134.05 182.905 117.842 182.065 110.361 168.944C107.048 176.551 101.993 183.399 95.9217 188.459C88.5087 194.63 79.9912 197.888 71.2704 197.888H71.2568ZM41.3812 153.439C41.8081 153.439 42.2215 153.642 42.479 154.001C42.811 154.462 42.8178 155.078 42.4993 155.552C37.1733 163.423 37.9932 175.067 44.444 183.237C50.3053 190.654 60.2661 195.118 71.0739 195.179C71.1214 195.179 71.1756 195.179 71.223 195.179C84.4973 195.179 101.261 185.919 108.938 165.164C109.128 164.643 109.623 164.29 110.178 164.277C110.741 164.243 111.242 164.588 111.459 165.103C117.49 179.321 133.732 180.209 150.388 179.05C158.038 178.515 165.424 177.757 171.759 174.349C179.755 170.048 182.77 162.793 182.208 157.517C182.167 157.13 182.296 156.744 182.553 156.46C182.818 156.175 183.17 156.02 183.577 156.02C196.078 156.209 209.298 155.728 221.272 150.973C234.038 145.9 243.565 135.888 246.133 124.847C249.06 112.234 241.796 98.517 230.582 95.4892C230.047 95.3469 229.654 94.8863 229.586 94.3308C229.518 93.7754 229.803 93.247 230.297 92.9829C240.949 87.2997 242.135 71.2187 236.559 59.7575C226.137 38.3457 197.061 28.1715 175.554 38.4202C175.222 38.576 174.835 38.5962 174.497 38.4675C174.151 38.3388 173.873 38.0747 173.731 37.736C165.715 19.1014 151.485 6.20413 135.677 3.23722C126.414 1.49636 115.809 4.17199 107.997 10.2142C101.485 15.2471 97.6225 22.0073 97.1278 29.2417C97.0939 29.7226 96.8093 30.1494 96.3756 30.3661C95.9419 30.5761 95.427 30.549 95.0272 30.2781C76.698 18.1124 50.8813 20.2123 36.245 35.0536C28.7643 42.6402 24.7122 53.6137 25.1323 65.163C25.5185 75.8113 29.8485 85.5249 37.0175 91.8177C37.458 92.2039 37.6003 92.8338 37.3631 93.3757C37.1259 93.9176 36.5771 94.2427 35.9875 94.1818C27.6191 93.3486 18.9525 96.6542 12.2375 103.265C5.5224 109.877 2.08021 118.479 2.79169 126.865C3.50318 135.251 8.34804 143.149 16.0795 148.535C23.811 153.92 32.9044 155.728 41.0221 153.493C41.1441 153.459 41.2593 153.446 41.3812 153.446V153.439Z" fill="black"/>
<path d="M227.716 215.927C224.348 215.927 220.845 214.342 218.474 211.476C217.538 210.345 216.956 209.248 216.691 208.13C216.515 207.371 216.481 206.565 216.603 205.786C212.7 204.852 209.346 202 207.849 198.254C207.212 196.662 207.063 195.206 207.408 193.939C208.133 191.29 210.627 190.098 212.775 189.523C211.921 188.459 211.298 187.172 210.966 185.756C210.383 183.25 210.81 180.69 212.145 178.732C214.198 175.718 217.816 174.39 220.357 173.652C225.256 172.229 228.983 172.473 231.741 174.39C233.211 175.413 234.255 176.856 235.176 178.122C237.399 181.198 239.547 184.469 239.879 188.053C242.847 187.165 246.194 188.066 248.566 189.631C251.276 191.419 252.93 193.953 253.106 196.594C253.411 201.221 249.108 204.838 244.941 205.549C242.142 206.023 239.384 205.556 236.613 204.75C236.884 205.78 236.952 206.904 236.789 208.062C236.389 210.995 234.634 213.603 232.209 214.863C230.826 215.581 229.288 215.927 227.723 215.927H227.716ZM219.415 204.384C219.578 204.716 219.612 205.109 219.47 205.475C219.226 206.118 219.171 206.843 219.334 207.507C219.497 208.211 219.903 208.943 220.567 209.742C222.878 212.533 227.391 214.308 230.962 212.459C232.622 211.598 233.821 209.769 234.106 207.697C234.343 205.949 233.855 204.364 232.771 203.355C232.303 202.914 232.202 202.21 232.534 201.661C232.866 201.112 233.537 200.875 234.146 201.085C237.853 202.393 241.194 203.436 244.487 202.874C247.502 202.366 250.599 199.792 250.395 196.77C250.28 195.009 249.033 193.187 247.068 191.887C244.934 190.478 241.58 189.699 239.256 191.311C238.815 191.616 238.232 191.636 237.772 191.351C237.311 191.067 237.067 190.545 237.141 190.01C237.636 186.495 235.454 183.128 232.974 179.707C232.141 178.556 231.287 177.37 230.189 176.612C228.15 175.189 225.175 175.074 221.109 176.253C218.968 176.876 215.939 177.966 214.381 180.256C213.473 181.59 213.188 183.372 213.601 185.14C214.015 186.908 215.058 188.385 216.461 189.177C216.969 189.468 217.24 190.051 217.118 190.627C217.003 191.202 216.529 191.636 215.946 191.704C212.389 192.117 210.444 193.079 210.017 194.644C209.827 195.334 209.942 196.208 210.356 197.238C211.643 200.455 214.814 202.901 218.257 203.334C218.839 203.409 219.287 203.836 219.409 204.377L219.415 204.384Z" fill="black"/>
</svg>
