<svg width="69" height="106" viewBox="0 0 69 106" fill="none" xmlns="http://www.w3.org/2000/svg">
<path d="M27.431 81.1859C25.4707 81.1859 23.5685 80.8297 21.9322 79.6122C20.246 78.3616 19.3987 75.9679 19.8639 73.7896C20.0383 72.9697 20.3955 72.2574 20.8939 71.6942C20.329 71.189 19.7476 70.6837 19.1662 70.1702C13.8916 65.5404 7.91103 60.2976 4.53034 54.1189C0.152876 46.1181 -1.12639 37.2973 1.01665 29.926C2.47027 24.9151 5.39419 20.6331 8.05223 17.1048C13.0194 10.5202 17.4633 6.32935 22.4555 3.51332C28.9594 -0.164072 36.4185 -1.00888 42.4074 1.23566C49.0359 3.72038 54.3104 10.0481 56.5199 18.1483C58.4885 25.3623 57.9652 32.8745 57.1096 39.9229C56.0049 49.0087 53.8701 60.2231 47.2333 68.5469C47.4576 68.7043 47.6819 68.8948 47.8896 69.1018C49.4263 70.6424 50.3067 73.4832 48.9113 75.7278C46.8513 79.0159 42.4822 79.5377 40.1315 79.8193L30.6954 80.9374C29.6073 81.0699 28.5108 81.1776 27.4227 81.1776L27.431 81.1859ZM24.6068 70.9654C24.7895 71.1724 24.9225 71.4209 24.9889 71.7108C25.1883 72.6053 24.6235 73.4915 23.7264 73.6903C23.6101 73.7151 23.2529 73.798 23.1034 74.4854C22.9123 75.3716 23.2778 76.4814 23.9091 76.9618C25.4707 78.1214 27.8213 77.9557 30.3049 77.6576L39.741 76.5394C42.2246 76.2413 44.974 75.7775 46.0954 73.9885C46.5356 73.2927 46.1619 72.0752 45.5472 71.454C45.1153 71.0234 44.9076 71.1476 44.808 71.2055C44.0936 71.6445 43.1633 71.4872 42.6317 70.8329C42.1084 70.1786 42.1499 69.2343 42.7397 68.638C50.3649 60.8774 52.6658 49.0087 53.812 39.5336C54.6261 32.8248 55.1328 25.6936 53.3137 19.0263C51.3866 11.9531 46.8679 6.46187 41.2362 4.34986C36.161 2.4449 29.7484 3.21516 24.0918 6.41217C19.515 8.99629 15.3867 12.9139 10.7102 19.1091C8.22663 22.3973 5.51878 26.3728 4.20638 30.8619C2.30422 37.3967 3.48374 45.2981 7.44588 52.537C10.5442 58.1939 16.043 63.0225 21.3591 67.6855C22.2894 68.5055 23.2113 69.3089 24.1001 70.1123C24.3576 70.3442 24.532 70.6423 24.6068 70.9654Z" fill="black"/>
<path d="M12.463 40.5689C11.6157 40.5689 10.8848 39.9228 10.81 39.0615C10.5525 36.1875 10.2868 33.2224 10.8433 30.2158C11.5078 26.6875 13.3435 23.739 15.8852 22.1488C16.666 21.6601 17.6877 21.892 18.1778 22.6706C18.6679 23.4408 18.4353 24.4679 17.6545 24.9565C15.8935 26.0581 14.606 28.2032 14.1076 30.8287C13.6259 33.3797 13.8751 36.1212 14.1076 38.7633C14.1907 39.6744 13.5179 40.4777 12.6042 40.5606C12.5544 40.5606 12.5045 40.5606 12.4547 40.5606L12.463 40.5689Z" fill="black"/>
<path d="M52.5995 105.992C50.0079 105.992 47.9063 105.18 46.5025 103.582C45.2482 102.157 44.7915 100.376 44.3928 98.8026C44.0439 97.436 43.7116 96.1522 42.9475 95.3405C41.9258 94.2721 40.2395 94.0485 38.2958 93.8C36.9751 93.6261 35.6129 93.4522 34.2922 92.9718C31.8335 92.0856 29.8317 90.0481 28.81 87.3977C27.7883 84.7473 27.9046 81.8981 29.1256 79.5956C29.5576 78.784 30.5626 78.4858 31.3683 78.9082C32.1823 79.3389 32.4896 80.3411 32.0577 81.1444C31.2852 82.6022 31.2271 84.4492 31.8999 86.205C32.5728 87.9609 33.8602 89.2944 35.4135 89.8576C36.3854 90.2054 37.515 90.3545 38.7111 90.5119C40.9622 90.8017 43.5122 91.1331 45.3479 93.0629C46.7185 94.4957 47.192 96.351 47.6073 97.9909C47.9479 99.3244 48.2635 100.575 48.9944 101.395C50.6723 103.292 54.2524 102.621 55.7144 102.248C59.5436 101.262 63.2067 99.4403 66.305 96.9887C67.0193 96.4172 68.0659 96.5415 68.639 97.2538C69.2122 97.966 69.0876 99.0096 68.3733 99.5811C64.9095 102.323 60.8228 104.352 56.545 105.462C55.1412 105.826 53.8122 106 52.5995 106V105.992Z" fill="black"/>
</svg>
