<svg width="333" height="229" viewBox="0 0 333 229" fill="none" xmlns="http://www.w3.org/2000/svg">
<g clip-path="url(#clip0_9_212)">
<path d="M105.83 228.597C105.205 228.597 104.564 228.552 103.931 228.444C96.7362 227.303 91.7535 220.013 92.7977 212.147C98.2491 170.996 127.751 134.852 164.53 124.263C178.162 120.334 190.208 120.73 200.338 125.422C206.546 128.299 211.562 132.604 215.229 136.038C231.813 151.535 244.484 171.589 251.868 194.026C254.326 201.495 250.782 209.738 243.941 212.426C237.1 215.114 229.569 211.239 227.11 203.761C221.272 186.016 211.249 170.151 198.134 157.899C195.898 155.814 192.963 153.243 190.068 151.904C185.431 149.755 179.091 149.809 171.223 152.074C144.352 159.814 122.809 186.205 118.822 216.273C117.876 223.437 112.252 228.597 105.822 228.597H105.83Z" fill="#376ADA"/>
<path d="M57.8855 220.948C50.9047 220.948 45.0915 214.952 44.7544 207.248C43.3319 174.682 60.8538 145.962 76.2707 124.577C89.0565 106.842 104.967 86.9857 125.991 74.1765C150.609 59.183 180.292 55.3088 207.45 63.5696C234.601 71.8214 258.199 91.8936 272.202 118.636C281.238 135.894 285.777 154.582 290.167 172.659C292.305 181.468 294.328 189.792 296.836 197.927C299.154 205.46 295.446 213.613 288.564 216.147C281.682 218.682 274.216 214.637 271.897 207.105C269.118 198.089 266.89 188.911 264.736 180.048C260.6 163.014 256.686 146.924 249.36 132.928C238.778 112.712 220.927 97.5297 200.396 91.2914C179.864 85.0531 157.417 87.9745 138.802 99.3185C121.823 109.665 108.108 126.905 96.9335 142.402C83.5639 160.938 70.0299 182.978 71.033 205.891C71.3784 213.828 65.779 220.561 58.5186 220.948C58.3048 220.956 58.091 220.965 57.8773 220.965L57.8855 220.948Z" fill="#0BB677"/>
<path d="M13.1728 224.075C12.6712 224.075 12.1614 224.039 11.6434 223.977C4.42418 223.069 -0.747689 215.931 0.0827699 208.039C4.34196 167.742 16.6837 128.784 35.7679 95.3721C56.2169 59.5782 83.7536 31.6586 115.41 14.6246C130.136 6.70539 143.76 2.11206 157.081 0.592929C184.872 -2.58016 211.151 7.60428 234.33 16.5932C247.009 21.5101 261.373 27.0743 273.172 38.3913C281.756 46.6252 287.866 56.9714 292.7 65.9963C315.888 109.278 329.57 158.618 332.258 208.686C332.686 216.615 327.152 223.419 319.9 223.887C312.648 224.354 306.424 218.305 305.996 210.376C303.546 164.811 291.097 119.921 269.998 80.5404C266.035 73.1425 261.571 65.5289 255.823 60.0187C247.823 52.3511 236.492 47.9555 225.532 43.7128C204.976 35.7486 181.682 26.7147 159.802 29.2136C149.631 30.3732 138.901 34.0497 127.011 40.4498C99.7626 55.1107 75.9259 79.3808 58.0669 110.626C41.0384 140.443 30.0204 175.275 26.2052 211.356C25.4323 218.682 19.7425 224.093 13.1563 224.093L13.1728 224.075Z" fill="#EFD55A"/>
<path d="M13.1728 224.075C12.6712 224.075 12.1614 224.039 11.6434 223.976C4.42418 223.069 -0.747689 215.931 0.0827699 208.039C4.34196 167.742 16.6837 128.784 35.7679 95.3721C56.2169 59.5782 83.7536 31.6586 115.41 14.6246C130.136 6.70539 143.76 2.11206 157.081 0.592929C184.872 -2.58016 211.151 7.60428 234.33 16.5932C247.009 21.5101 261.373 27.0743 273.172 38.3913C281.756 46.6252 287.866 56.9714 292.7 65.9963C315.888 109.278 329.57 158.618 332.258 208.686C332.686 216.615 327.152 223.419 319.9 223.887C312.648 224.354 306.424 218.304 305.996 210.376C303.546 164.811 291.097 119.921 269.998 80.5403C266.035 73.1425 261.571 65.5289 255.823 60.0187C247.823 52.3511 236.492 47.9555 225.532 43.7128C204.976 35.7486 181.682 26.7147 159.802 29.2136C149.631 30.3732 138.901 34.0497 127.011 40.4498C99.7626 55.1107 75.9259 79.3808 58.0669 110.626C41.0384 140.442 30.0204 175.275 26.2052 211.356C25.4323 218.682 19.7425 224.093 13.1563 224.093L13.1728 224.075Z" fill="#F45727"/>
</g>
<defs>
<clipPath id="clip0_9_212">
<rect width="332.291" height="228.597" fill="white"/>
</clipPath>
</defs>
</svg>
