<svg width="217" height="248" viewBox="0 0 217 248" fill="none" xmlns="http://www.w3.org/2000/svg">
<path d="M110.247 18.2048C98.1471 15.9291 85.5202 20.1797 75.4921 27.393C65.4641 34.6063 57.7012 44.5449 50.6495 54.743C43.0078 65.7702 35.9824 77.3653 31.4758 90.0304C22.0723 116.484 24.3436 146.021 32.4478 172.901C35.7822 183.961 40.1531 194.902 47.2594 203.95C66.8609 228.947 104.946 234.078 133.418 220.315C161.891 206.551 180.95 177.434 189.131 146.613C196.887 117.347 195.52 84.6475 180.264 58.5695C165.007 32.4916 134.321 14.9035 104.808 20.1257" fill="#F3DA41"/>
<path d="M89.7769 178.141C84.5969 176.738 79.5144 174.318 74.8779 170.964C67.2024 165.41 60.6 157.353 55.243 147.041C49.6793 136.312 48.0172 127.122 50.1761 118.926C50.9064 116.17 53.6933 114.533 56.4223 115.259C59.1479 115.997 60.7641 118.827 60.037 121.57C58.5565 127.157 59.9525 133.91 64.2738 142.244C68.8865 151.125 74.4499 157.965 80.8155 162.576C88.0225 167.803 96.5012 170.126 104.069 168.955C108.245 168.309 112.52 166.594 116.778 163.845C129.182 155.845 137.382 141.815 144.624 129.45L157.691 107.13C159.123 104.671 162.258 103.863 164.69 105.31C167.123 106.758 167.921 109.928 166.49 112.387L153.423 134.707C145.597 148.077 136.731 163.223 122.282 172.553C116.813 176.083 111.213 178.308 105.618 179.171C100.475 179.97 95.0613 179.599 89.7703 178.166L89.7769 178.141Z" fill="black"/>
<path d="M81.4601 116.95C81.0778 116.846 80.702 116.718 80.3239 116.548C75.9917 114.64 75.169 109.913 74.8945 108.355C73.2549 98.9297 73.6112 89.0562 75.9367 79.7829C76.6862 76.8052 77.7899 73.3888 80.3807 70.696C81.9732 66.383 87.0039 63.9102 91.6428 65.2604C95.027 66.2574 97.8447 69.0923 99.176 72.8476C100.143 75.5821 100.235 78.2798 100.242 80.7944C100.256 89.6722 99.4056 102.606 91.9119 112.377C88.9579 116.241 85.0524 117.909 81.4634 116.937L81.4601 116.95ZM89.7446 76.9615C89.0068 77.0022 88.2456 77.3306 87.7318 77.873C86.8053 78.8248 86.2669 80.6569 85.8397 82.3187C84.0084 89.6276 83.6193 97.3806 84.6903 104.861C89.4685 97.6555 90.0386 87.773 90.0181 80.8178C90.0197 79.415 89.9925 78.0711 89.7413 76.974L89.7446 76.9615Z" fill="black"/>
<path d="M125.663 120.892C124.775 120.652 124.006 120.363 123.406 120.134C122.528 119.802 121.076 119.249 119.811 117.984C117.478 115.668 117.304 112.533 117.22 111.201C116.696 101.958 117.42 92.6915 119.367 83.6498C120.182 79.8747 121.362 75.9711 124.407 72.9604C126.555 70.8425 129.11 69.7304 131.105 68.9878C132.672 68.4101 134.568 67.8411 136.731 68.1065C140.088 68.508 142.849 70.8597 143.6 73.9632C143.736 74.4947 143.768 75.0244 143.734 75.5499C144.651 78.3775 144.706 81.3596 144.614 83.7535C144.211 94.002 142.096 104.027 138.329 113.552C137.676 115.219 136.131 119.104 132.22 120.691C129.819 121.671 127.489 121.387 125.663 120.892ZM127.42 110.623C127.685 110.721 128.023 110.84 128.307 110.917C128.438 110.672 128.618 110.293 128.838 109.711C132.169 101.284 134.044 92.4106 134.4 83.3387C134.483 81.1293 134.317 79.7612 134.055 78.9019C133.182 79.2534 132.155 79.737 131.529 80.3557C130.401 81.467 129.807 83.6583 129.331 85.8547C127.576 93.9728 126.93 102.298 127.399 110.604C127.399 110.604 127.399 110.604 127.395 110.616L127.42 110.623Z" fill="black"/>
<path d="M84.5222 114.224C84.0535 114.097 83.6014 113.908 83.1724 113.631C82.9242 113.47 82.676 113.31 82.4467 113.127C80.3941 112.892 78.6316 111.412 78.0904 109.314C77.7122 107.848 77.9878 106.359 78.7541 105.164C77.868 104.068 77.1898 102.388 77.6278 99.887C77.4251 98.8564 77.3917 97.8851 77.4338 97.0279C75.5055 89.6895 77.2454 82.4761 79.3687 75.1127C79.7569 73.7478 80.6835 70.5507 83.7279 68.8896C85.4908 67.9238 87.5596 67.7492 89.5476 68.3279C91.7635 68.9949 93.6697 70.5805 94.7809 72.6724C96.2253 75.4025 96.1371 78.2788 96.0839 80.1755L95.7593 90.3784C95.7018 92.3408 95.6327 94.4471 95.3678 96.5939C95.3427 96.988 95.3175 97.3821 95.2768 97.7854C95.3349 98.015 95.3683 98.2379 95.3985 98.4732C95.7449 101.855 94.7118 105.304 92.5777 107.92C92.1032 108.513 91.5466 109.017 90.9515 109.417C90.9007 110.606 90.4445 111.779 89.5897 112.71C88.2712 114.144 86.3204 114.671 84.5198 114.183L84.5222 114.224Z" fill="black"/>
<path d="M85.2427 94.1981C84.3917 93.9676 83.5878 93.5093 82.9241 92.8216C80.1836 89.9943 78.8381 85.7941 79.2292 81.2759C79.2441 81.1196 79.2591 80.9632 79.2774 80.7945C78.2842 79.8037 77.6879 78.4126 77.7473 76.8917C77.838 74.6042 78.9247 72.3994 80.722 70.8549C82.5193 69.3104 84.842 68.5764 87.0986 68.8402C88.6751 69.0268 90.0723 69.9398 90.8857 71.3096C91.6992 72.6793 91.8354 74.3601 91.2686 75.8504C90.3982 78.087 89.5888 80.1932 89.4261 82.1539C89.306 83.6048 89.6243 84.9473 90.2487 85.5842C92.2219 87.6156 92.1859 90.8936 90.1767 92.8886C88.8353 94.2091 86.9636 94.6376 85.274 94.1799L85.2427 94.1981Z" fill="black"/>
<path d="M125.786 119.135C124.861 118.884 123.988 118.434 123.228 117.76C122.169 116.818 121.566 115.505 121.492 114.136C120.776 113.046 120.238 111.537 120.167 109.46L119.878 100.374C119.799 97.8801 119.712 95.3171 120.004 92.6165C120.62 86.9028 122.914 81.3898 126.5 76.9353C127.177 74.7799 128.352 72.6924 130.472 71.0751C131.664 70.1685 133.181 69.831 134.641 70.1596C136.088 70.4848 137.345 71.4269 138.051 72.7541C139.577 75.6265 139.974 78.7145 139.933 81.5634C140.211 82.0128 140.431 82.527 140.552 83.0676C142.428 90.8059 140.967 99.311 136.637 105.97C136.193 108.295 135.638 110.591 134.971 112.856C134.669 113.896 134.092 115.825 132.455 117.413C130.623 119.189 128.045 119.787 125.788 119.175L125.786 119.135Z" fill="black"/>
</svg>
