<svg width="224" height="285" viewBox="0 0 224 285" fill="none" xmlns="http://www.w3.org/2000/svg">
<path d="M146.747 284.514C145.339 284.589 143.926 284.619 142.517 284.604C133.043 284.503 123.308 281.805 115.115 277.011C106.072 271.728 99.6181 264.412 96.4495 255.859C93.3506 247.501 93.3407 238.825 96.4728 229.717C88.1473 228.848 73.428 225.927 64.6963 216.22C59.8864 210.874 57.8215 204.275 58.7162 197.137C59.2598 192.765 60.9451 188.549 63.7097 184.602C63.7253 184.574 63.7504 184.546 63.766 184.518C66.0893 181.329 68.4115 178.294 70.7294 175.386C66.1145 173.693 61.7448 171.343 57.906 168.438C50.3526 162.722 45.3921 155.171 43.9418 147.188C43.7805 146.281 43.6473 145.372 43.5704 144.461C31.0268 143.372 20.937 138.834 14.1996 131.025C6.94106 122.628 4.51347 111.741 7.17722 99.5576C7.65861 97.3467 8.30789 95.1178 9.10524 92.8628C8.18463 92.2502 7.29323 91.5634 6.46026 90.8101C2.27452 87.0263 0.110091 82.0192 0.208723 76.3289C0.254366 73.6155 0.913181 70.8148 2.16536 68.0005C18.0869 32.2504 53.3412 6.33778 94.1477 0.38388C97.2126 -0.0610863 100.214 1.97262 100.848 4.93081C101.483 7.88899 99.5162 10.6508 96.4513 11.0957C59.2582 16.53 27.1372 40.1353 12.6233 72.7002C11.9179 74.2793 11.5504 75.7587 11.526 77.1019C11.4815 79.498 12.1651 81.3292 13.6704 82.8355C15.9314 78.7795 18.6375 74.8176 21.7379 71.0794C45.326 42.5991 80.6839 22.5744 118.733 16.1333C127.516 14.503 139.216 16.4615 144.437 23.4087C146.458 26.1023 149.121 31.7537 144.226 39.4141C144.17 39.4987 144.115 39.5923 144.049 39.6775C119.518 73.2404 78.7689 95.1582 35.0506 98.3029C32.4749 98.486 26.2388 98.7015 19.7019 97.2105C16.287 107.058 16.3915 117.045 22.7463 124.403C28.1524 130.66 36.3022 133.117 44.4463 133.724C46.3881 126.167 51.0726 118.4 58.5769 110.274C78.0157 89.2052 104.606 73.7295 133.474 66.6913C138.553 65.4495 148.189 64.0094 155.614 68.2819C159.357 70.4392 161.95 73.7641 163.117 77.8997C164.735 83.6523 163.174 89.6837 158.937 94.0448C135.015 118.653 102.502 135.996 67.4009 142.869C63.0605 143.718 58.884 144.267 54.8826 144.536C54.9357 144.995 54.9971 145.445 55.0772 145.894C56.5484 153.976 64.9756 163.336 78.0911 166.515C113.442 125.981 146.293 115.892 168.692 115.075C168.777 115.071 168.861 115.066 168.947 115.071C173.473 115.101 177.735 117.493 180.047 121.332C182.37 125.17 182.344 129.777 180 133.357C167.825 151.906 145.571 162.408 127.548 169.483C113.672 174.931 98.7117 179.738 83.1828 178.229C79.3815 182.767 76.0297 187.108 73.1848 191.014C71.3779 193.604 70.2916 196.3 69.9435 199.012C69.4334 203.101 70.4596 206.51 73.0918 209.434C78.032 214.927 88.9397 218.777 100.864 219.246C101.016 219.256 101.167 219.257 101.32 219.267C105.48 212.117 111.461 204.698 119.255 196.955C139.607 176.763 167.507 152.993 202.985 148.412C208.602 147.577 216.095 148.437 220.343 153.332C222.053 155.299 224.545 159.545 222.075 165.879C222.054 165.944 222.024 166.009 222.002 166.064C212.919 186.778 195.903 203.8 172.788 215.273C153.728 224.734 131.194 229.946 108.575 230.176C104.984 238.329 104.498 245.817 107.074 252.761C110.899 263.065 124.125 273.592 141.996 273.788C155.148 273.928 168.7 269.195 184.657 258.867C187.179 257.236 190.726 257.944 192.574 260.448C194.421 262.951 193.873 266.308 191.351 267.939C175.131 278.435 160.817 283.77 146.71 284.525L146.747 284.514ZM206.762 158.964C206.303 158.988 205.817 159.033 205.316 159.114C205.269 159.116 205.232 159.118 205.186 159.13C172.971 163.273 146.827 185.643 127.654 204.675C122.604 209.687 118.426 214.481 115.104 219.083C133.541 217.961 151.618 213.322 167.167 205.6C188.03 195.236 203.364 180 211.496 161.521C211.923 160.392 211.794 159.928 211.794 159.928C211.498 159.572 209.607 158.821 206.754 158.973L206.762 158.964ZM168.578 125.953C138.085 127.583 111.682 147.628 92.7588 167.517C103.364 166.705 113.657 163.018 122.79 159.428C139.358 152.921 159.74 143.381 170.333 127.246C170.406 127.143 170.614 126.814 170.344 126.357C170.111 125.98 169.792 125.915 169.612 125.907C169.265 125.925 168.917 125.944 168.579 125.962L168.578 125.953ZM142.734 76.3058C140.885 76.4047 138.889 76.7018 136.85 77.2007C110.04 83.7391 85.3335 98.1166 67.28 117.687C62.1103 123.295 58.559 128.526 56.5982 133.464C59.5369 133.153 62.2441 132.718 64.5614 132.258C97.5012 125.809 128.004 109.535 150.448 86.4472C152.129 84.7253 152.796 82.3232 152.19 80.1795C151.834 78.9019 151.223 78.1005 150.169 77.4859C148.521 76.5404 145.85 76.1392 142.734 76.3058ZM24.3912 87.1946C27.2348 87.6138 30.3747 87.736 33.6053 87.4998C74.0836 84.5918 111.812 64.3226 134.557 33.2851C135.227 32.2156 136.122 30.3997 135.374 29.397C133.745 27.2354 127.424 25.6513 121.397 26.7715C85.7927 32.8008 52.7919 51.4844 30.779 78.0671C28.4256 80.9131 26.2588 83.9848 24.3902 87.1856L24.3912 87.1946Z" fill="#EFA3DA"/>
</svg>
