<svg width="143" height="120" viewBox="0 0 143 120" fill="none" xmlns="http://www.w3.org/2000/svg">
<g clip-path="url(#clip0_4_162)">
<path d="M26.8309 37.5586C26.4799 37.5586 26.1289 37.5012 25.786 37.3863C24.3167 36.8858 23.3943 35.4173 23.5902 33.8667C24.08 29.9615 20.3005 26.0891 16.9537 23.152C12.9784 19.657 8.70918 16.121 3.82775 14.1273C3.55838 14.0617 3.29716 13.9551 3.06044 13.832C2.79922 13.7335 2.52985 13.6433 2.26047 13.5531C0.546256 12.9952 -0.39248 11.141 0.170762 9.41813C0.734003 7.69524 2.57066 6.75176 4.28488 7.31785C4.62772 7.43271 4.97056 7.54757 5.3134 7.67883C9.51731 7.6132 13.9988 5.02067 17.1333 0.795498C20.3903 -3.59376 22.0964 -9.15622 23.4596 -14.5218C23.8432 -16.0642 25.2799 -17.0979 26.8472 -16.9994C28.4226 -16.8846 29.6961 -15.6622 29.8675 -14.0787C31.0103 -3.54453 40.0711 5.92313 50.4952 7.48193C51.9808 7.70345 53.1237 8.91767 53.2706 10.4272C53.4094 11.9286 52.5114 13.3397 51.0911 13.832C41.5813 17.1383 35.1734 26.4009 29.6634 35.926C29.0675 36.9597 27.9818 37.5586 26.839 37.5586H26.8309ZM13.6722 12.1501C16.4313 14.0617 18.9455 16.1948 21.2474 18.213C23.7045 20.3708 26.3248 22.9633 28.088 25.9824C31.8103 20.3461 36.0713 15.1775 41.4017 11.4938C35.0918 8.51567 29.8022 3.36342 26.586 -2.84717C25.484 -0.197212 24.1208 2.3625 22.3658 4.72532C19.9414 7.99059 16.9374 10.5257 13.6804 12.1583L13.6722 12.1501Z" fill="black"/>
<path d="M80.119 119.674C80.0048 119.674 79.8905 119.674 79.7762 119.658C78.2008 119.494 76.9763 118.214 76.862 116.63C75.7029 100.246 73.8254 84.7159 63.7361 74.8216C54.7895 66.0431 41.1574 63.7213 26.7907 61.9492C25.003 61.7276 23.7296 60.0868 23.95 58.2901C23.9989 57.8881 24.1214 57.5107 24.301 57.1661C24.4806 55.5663 25.8111 54.3028 27.46 54.2618C41.1248 53.9172 54.5528 48.1907 64.2911 38.5425C74.0295 28.9026 79.9313 15.4969 80.4782 1.76303C80.5517 0.00732672 81.9802 -1.37919 83.7352 -1.38739C85.4821 -1.38739 86.9188 -0.00908208 87.0004 1.74662C87.6044 15.2344 93.4328 28.5334 103 38.2472C112.436 47.8297 125.611 53.9583 139.153 55.074C140.77 55.2053 142.051 56.518 142.149 58.1506C142.247 59.7832 141.137 61.2354 139.545 61.5636C113.979 66.8061 91.3594 89.2118 83.2699 117.311C82.8618 118.731 81.572 119.682 80.1354 119.682L80.119 119.674ZM43.9736 58.0932C53.2304 60.2017 61.6545 63.6064 68.2991 70.1206C76.862 78.5217 80.2905 89.7615 82.0047 102.101C86.38 92.7396 92.3308 84.1416 99.5794 76.7824C107.261 68.9884 116.036 62.9993 125.415 59.0859C115.211 55.9847 105.751 50.3812 98.3468 42.8662C91.792 36.2125 86.8045 28.0411 83.7679 19.2298C80.7149 28.2298 75.6131 36.5243 68.8624 43.2107C61.9076 50.0941 53.2793 55.1971 43.9736 58.0932Z" fill="black"/>
</g>
<defs>
<clipPath id="clip0_4_162">
<rect width="142.141" height="136.674" fill="white" transform="translate(0 -17)"/>
</clipPath>
</defs>
</svg>
