<svg width="879" height="900" viewBox="0 0 879 900" fill="none" xmlns="http://www.w3.org/2000/svg">
<path d="M558.338 193.419C551.692 191.328 544.766 189.926 537.927 188.795C534.132 188.158 530.303 187.822 526.453 187.754C515.969 187.567 504.962 188.239 494.758 191.114C488.294 192.933 481.759 195.001 475.604 197.796C469.471 200.581 463.83 204.444 458.255 208.221C455.05 210.39 452.023 212.827 449.271 215.565C444.46 220.372 439.663 225.497 435.803 231.164C428.485 241.924 422.971 254.422 420.128 267.188C417.141 280.618 415.271 293.717 414.602 307.434C414.085 318.098 413.877 328.763 412.792 339.387C412.477 342.436 412.059 345.467 411.572 348.491C410.318 353.113 408.726 357.614 406.795 361.991C404.674 365.62 402.345 369.118 399.755 372.429C397.308 374.873 394.685 377.143 391.942 379.241C390.397 380.061 388.82 380.815 387.229 381.509C386.02 381.789 384.802 381.992 383.568 382.189C381.744 382.1 379.911 381.933 378.107 381.686C365.006 377.995 352.733 371.81 339.703 367.814C333.218 365.837 326.526 364.391 319.843 363.28C316.512 362.719 313.169 362.503 309.775 362.636C303.377 362.879 297.019 363.007 290.862 364.882C286.641 366.169 281.555 367.64 277.35 369.705C273.013 371.833 268.943 374.702 264.999 377.468C259.58 381.265 255.035 386.555 251.032 391.802C250.018 393.127 249.142 394.52 248.336 395.976C245.919 400.288 243.499 404.765 241.666 409.38C239.191 415.603 237.98 422.521 236.956 429.066C236.37 432.882 236.244 436.735 236.404 440.6C236.684 447.469 236.876 454.38 238.313 461.116C239.759 467.929 241.954 474.682 244.453 481.14C245.807 484.664 247.457 488.074 249.386 491.31C253.25 497.765 257.262 504.164 261.847 510.125C273.462 525.214 287.826 537.931 298.758 553.563C301.126 557.822 303.165 562.238 304.958 566.785C307.7 586.591 310.437 606.414 313.211 626.231C315.372 641.615 318.441 657.31 325.171 671.349C332.678 686.993 343.737 699.747 357.11 710.432C361.392 713.856 365.992 716.844 370.779 719.458C378.521 723.693 386.342 727.809 394.584 730.992C407.978 736.168 422.117 739.24 436.195 741.867C442.508 743.046 448.919 743.949 455.372 743.91C461.3 743.866 467.357 743.61 473.227 742.699C479.12 741.777 484.898 739.637 490.457 737.601C493.067 736.651 495.505 735.363 497.867 733.881C502.859 730.721 507.901 727.781 512.066 723.568C515.949 719.639 520.187 715.268 523.067 710.369C528.663 700.825 530.484 695.01 532.503 684.264C534.808 672.095 531.668 659.942 527.632 648.625C525.507 642.652 522.353 637.171 519.137 631.759C513.246 621.831 508.266 611.588 504.393 600.734C501.612 590.754 499.768 580.542 498.881 570.197C498.658 559.413 499.502 548.647 501.405 538.024C503.194 530.965 505.493 524.054 508.443 517.415C509.882 514.993 511.438 512.65 513.123 510.408C514.19 509.397 515.31 508.441 516.452 507.529C517.18 507.168 517.929 506.85 518.662 506.526C520.818 506.037 522.971 505.657 525.155 505.399C539.21 505.314 553.168 507.714 567.238 507.432C574.142 507.3 581.153 507.021 587.998 505.929C594.614 504.864 601.067 502.563 607.309 500.241C613.781 497.837 619.551 493.763 625.194 489.845C631.211 485.694 636.196 479.829 640.803 474.212C645.532 468.455 648.766 461.422 651.97 454.783C653.905 450.756 655.383 446.527 656.494 442.203C659.629 430.003 661.719 417.719 661.736 405.127C661.776 380.902 658.176 356.629 653.099 333.036C643.168 286.813 627.132 236.819 587.507 208.198C581.773 204.046 575.27 200.83 568.966 197.722C565.508 196.03 561.964 194.583 558.294 193.44L558.338 193.419Z" fill="#EFD55A"/>
<mask id="mask0_9_220" style="mask-type:alpha" maskUnits="userSpaceOnUse" x="242" y="191" width="409" height="554">
<path d="M546.248 197.692C539.818 195.457 533.134 193.903 526.539 192.62C522.88 191.899 519.195 191.478 515.495 191.323C505.421 190.899 494.864 191.322 485.128 193.96C478.96 195.628 472.73 197.544 466.881 200.194C461.053 202.832 455.722 206.559 450.452 210.201C447.423 212.293 444.57 214.655 441.989 217.324C437.476 222.011 432.985 227.015 429.405 232.58C422.618 243.148 417.604 255.491 415.161 268.16C412.595 281.489 411.094 294.513 410.761 308.181C410.505 318.806 410.545 329.44 409.743 340.013C409.509 343.048 409.176 346.061 408.776 349.066C407.676 353.649 406.248 358.102 404.492 362.425C402.537 365.997 400.379 369.434 397.965 372.678C395.67 375.061 393.203 377.266 390.615 379.297C389.149 380.08 387.652 380.797 386.139 381.452C384.984 381.705 383.819 381.88 382.638 382.049C380.885 381.919 379.12 381.711 377.382 381.423C364.715 377.447 352.787 371 340.182 366.721C333.908 364.602 327.448 363.009 321.004 361.75C317.792 361.116 314.576 360.825 311.319 360.881C305.179 360.979 299.076 360.963 293.204 362.694C289.179 363.883 284.327 365.236 280.335 367.201C276.217 369.227 272.372 371.996 268.646 374.667C263.528 378.332 259.281 383.506 255.555 388.649C254.61 389.948 253.801 391.318 253.059 392.752C250.835 396.999 248.611 401.41 246.954 405.972C244.718 412.123 243.711 418.997 242.875 425.502C242.398 429.295 242.363 433.136 242.605 436.995C243.028 443.853 243.369 450.752 244.901 457.503C246.443 464.331 248.704 471.116 251.25 477.615C252.63 481.161 254.291 484.6 256.217 487.871C260.074 494.397 264.072 500.87 268.61 506.92C280.106 522.232 294.19 535.241 305.042 551.081C307.412 555.382 309.471 559.833 311.295 564.409C314.376 584.228 317.451 604.062 320.563 623.893C322.985 639.287 326.287 655.011 333.067 669.166C340.631 684.941 351.54 697.912 364.626 708.872C368.816 712.384 373.301 715.468 377.958 718.184C385.49 722.582 393.095 726.864 401.083 730.225C414.065 735.69 427.714 739.073 441.295 742.011C447.386 743.33 453.564 744.375 459.761 744.482C465.454 744.571 471.266 744.453 476.884 743.676C482.523 742.889 488.024 740.885 493.318 738.979C495.803 738.09 498.116 736.86 500.351 735.436C505.075 732.396 509.852 729.577 513.757 725.468C517.398 721.636 521.37 717.372 524.025 712.551C529.185 703.157 530.803 697.397 532.501 686.724C534.44 674.637 531.15 662.445 527.018 651.064C524.842 645.058 521.689 639.52 518.479 634.05C512.596 624.013 507.582 613.684 503.618 602.77C500.722 592.752 498.72 582.524 497.635 572.185C497.178 561.423 497.746 550.703 499.334 540.15C500.892 533.149 502.945 526.307 505.629 519.751C506.956 517.367 508.399 515.065 509.966 512.867C510.968 511.882 512.023 510.954 513.098 510.071C513.79 509.726 514.502 509.426 515.199 509.12C517.258 508.681 519.318 508.35 521.41 508.142C534.907 508.374 548.368 511.083 561.876 511.119C568.505 511.142 575.233 511.023 581.782 510.087C588.113 509.174 594.259 507.025 600.202 504.85C606.364 502.597 611.815 498.664 617.147 494.883C622.832 490.878 627.488 485.139 631.787 479.64C636.199 474.005 639.147 467.063 642.075 460.512C643.842 456.539 645.166 452.354 646.136 448.065C648.871 435.967 650.602 423.761 650.335 411.201C649.827 387.037 645.822 362.745 640.414 339.096C629.833 292.765 613.303 242.535 574.598 213.092C568.997 208.821 562.679 205.467 556.554 202.225C553.194 200.459 549.757 198.935 546.206 197.712L546.248 197.692Z" fill="#F3DA41"/>
</mask>
<g mask="url(#mask0_9_220)">
<path d="M718.931 559.206C715.782 555.764 710.987 555.81 709.815 560.358C708.662 564.828 707.532 569.287 706.379 573.756C705.671 576.488 705.231 580.203 704.215 583.115C703.213 582.547 702.212 581.979 701.225 581.439C699.186 580.285 697.124 579.142 695.085 577.988C690.985 575.691 686.884 573.394 682.783 571.096C679.329 569.154 676.009 572.079 675.913 575.805C675.693 585.286 675.451 594.777 675.232 604.257C668.716 600.845 662.56 596.465 656.785 591.105C650.91 585.653 645.531 595.421 651.393 600.845C659.81 608.635 669.231 614.736 679.101 618.749C682.598 620.186 685.876 618.184 685.972 614.04C686.203 604.763 686.411 595.496 686.655 586.247C689.34 587.755 692.062 589.281 694.747 590.789C699.007 593.184 704.613 597.652 709.076 596.131C713.912 594.503 714.597 588.032 715.851 583.063C716.607 580.135 717.34 577.218 718.096 574.291C722.419 579.261 726.631 584.353 730.731 589.568C735.775 596.003 743.463 588.615 738.383 582.163C732.142 574.21 725.646 566.552 718.895 559.188L718.931 559.206Z" fill="#F45727"/>
<path d="M699.768 479.575C694.298 478.551 688.971 476.938 683.684 474.751C684.925 468.503 686.176 462.215 687.417 455.967C688.11 452.549 685.83 447.55 682.115 447.259C675.384 446.727 668.871 444.807 662.505 441.532C664.138 432.182 666.003 422.965 668.255 413.912C669.17 410.249 666.476 405.863 662.952 405.203C654.676 403.666 646.4 402.129 638.124 400.591C631.054 399.282 631.055 411.61 638.125 412.92C644.084 414.025 650.043 415.13 655.98 416.246C654.036 424.702 652.298 433.234 650.91 441.912C650.363 445.401 651.875 448.298 654.817 450.17C661.338 454.309 668.281 457.137 675.276 458.585C674.155 464.255 673.012 469.936 671.891 475.606C671.266 478.75 672.833 482.419 675.798 483.864C683.6 487.674 691.658 490.357 699.756 491.874C706.825 493.184 706.824 480.855 699.755 479.546L699.768 479.575Z" fill="#F45727"/>
<path d="M607.845 345.875C607.63 350.005 607.438 354.124 607.236 358.283C607.131 360.382 607.035 362.442 606.929 364.54C606.929 364.54 606.929 364.54 606.916 364.512C600.504 360.843 594.507 356.144 588.9 350.843C583.059 345.341 577.703 355.098 583.508 360.582C587.728 364.56 592.152 368.197 596.821 371.337C600.998 374.153 606.581 378.631 611.248 378.195C616.547 377.667 617.616 372.126 617.885 366.859C618.083 363.05 618.267 359.212 618.451 355.374C620.544 356.225 622.636 357.075 624.739 357.887C628.665 359.398 633.404 361.914 636.701 359C639.55 356.506 639.686 351.198 640.421 347.273C641.01 344.112 641.576 340.962 642.165 337.801C647.754 340.505 653.357 343.237 658.969 345.931C665.797 349.23 668.565 337.814 661.76 334.504C654.299 330.88 646.815 327.266 639.354 323.641C636.621 322.33 633.245 323.649 632.656 326.81C631.935 330.763 631.214 334.716 630.469 338.68C630.137 340.539 629.782 342.408 629.45 344.267C629.266 345.188 629.118 346.126 628.934 347.046C628.924 347.086 628.905 347.164 628.877 347.282C627.102 346.628 625.027 345.456 623.878 344.993C620.819 343.766 617.792 342.489 614.762 341.144C611.198 339.565 608.078 341.84 607.891 345.853L607.845 345.875Z" fill="#F45727"/>
<path d="M572.733 267.78C568.943 273.046 565.783 278.812 563.092 284.913C560.746 281.264 558.765 277.374 557.158 273.203C555.413 268.681 549.45 267.924 547.67 271.545C545.838 275.294 543.992 279.015 542.161 282.764C541.336 284.474 540.497 286.155 539.672 287.865C539.471 288.273 539.27 288.681 539.059 289.128C539.045 289.099 539.018 289.043 539.005 289.014C537.722 287.017 536.416 285.03 535.133 283.032C532.647 279.207 530.321 275.063 527.586 271.426C524.721 267.572 520.093 265.351 516.765 268.141C513.774 270.632 513.408 275.633 516.388 279.432C518.095 281.611 520.099 282.156 521.826 281.756L523.249 283.931C524.892 286.453 526.549 289.003 528.17 291.535C531.11 296.083 534.539 303.629 539.738 304.677C545.679 305.861 547.751 298.63 549.966 294.143C550.931 292.194 551.873 290.255 552.838 288.305C555.247 292.444 558.02 296.342 561.127 299.873C564.437 303.655 568.791 302.915 570.243 298.72C572.168 293.261 574.596 288.153 577.383 283.327C578.538 286.184 579.531 289.117 580.294 292.16C582.294 300.139 592.909 298.938 590.872 290.941C588.995 283.46 586.126 276.204 582.258 269.456C579.702 265.005 575.286 264.246 572.77 267.798L572.733 267.78ZM519.885 278.785C519.885 278.785 519.885 278.785 519.862 278.796C519.221 277.918 519.221 277.918 519.885 278.785Z" fill="#F45727"/>
<path d="M479.898 241.476C484.958 241.513 490.054 241.568 495.114 241.605C499.418 241.653 504.875 242.649 507.295 238.239C509.407 234.427 507.806 229.732 506.287 225.45C505.275 222.595 504.262 219.74 503.25 216.885C509.384 216.692 515.09 215 518.612 209.166C521.909 203.751 521.093 197.678 518.417 191.963C523.424 191.471 528.391 190.718 533.284 189.688C539.894 188.298 537.133 175.852 530.477 177.264C522.83 178.902 515.048 179.839 507.077 180.137C503.009 180.291 501.658 186.486 504.65 190.072C507.325 193.286 511.675 197.896 508.817 201.679C505.884 205.602 499.791 204.63 495.381 204.181C490.912 203.725 488.984 207.866 490.645 212.568C492.022 216.431 493.385 220.266 494.739 224.141C495.117 225.177 496.15 227.362 496.762 229.192C496.148 229.204 495.498 229.199 494.907 229.201C492.92 229.168 490.947 229.164 488.937 229.143C484.976 229.106 480.992 229.081 477.031 229.044C474.11 229.002 472.434 232.782 473.141 235.886C473.975 239.554 476.908 241.466 479.852 241.497L479.898 241.476ZM498.736 229.195C499.016 229.132 498.939 229.03 498.736 229.195V229.195Z" fill="#F45727"/>
<path d="M589.498 503.053C591.365 495.328 593.195 487.586 595.062 479.861C599.692 483.575 604.6 486.567 609.907 488.675C612.784 489.815 615.845 488.783 616.605 485.507C617.626 480.995 618.647 476.484 619.69 471.962C620.21 469.667 620.644 467.308 621.16 464.946C624.66 468.117 628.112 471.485 631.553 474.65C637.46 480.051 642.839 470.283 636.945 464.91C633.019 461.315 629.093 457.72 625.168 454.125C621.405 450.696 617.392 447.454 613.623 451.216C610.905 453.926 610.513 460.779 609.604 464.752C608.848 468.096 608.102 471.401 607.346 474.745C603.116 472.474 599.073 469.525 595.52 465.823C592.368 462.556 587.531 462.274 586.403 466.975C584.463 475.082 582.51 483.16 580.571 491.266C575.494 487.799 570.44 484.32 565.377 480.881C562.672 479.035 559.458 479.028 557.915 481.841C556.565 484.286 557.28 488.775 559.984 490.621C567.188 495.548 574.356 500.457 581.559 505.384C584.718 507.537 588.589 507.025 589.558 503.059L589.498 503.053Z" fill="#F45727"/>
<path d="M512.428 378.718C517.423 379.273 522.364 379.714 527.351 380.133C525.941 382.988 524.653 385.924 523.502 388.969C522.163 392.45 525.596 397.146 528.805 397.677C534.222 398.588 539.521 400.144 544.759 402.285C542.355 406.791 539.929 411.308 537.525 415.813C534.126 422.144 543.656 429.965 547.055 423.633C550.637 416.973 554.205 410.284 557.786 403.624C559.517 400.374 557.814 395.762 554.417 394.001C548.793 391.104 543.007 388.875 537.172 387.26C538.703 384.244 540.407 381.354 542.273 378.63C544.466 375.405 541.48 368.796 537.507 368.556C531.375 368.158 525.213 367.635 519.069 367.034C519.445 364.911 519.858 362.806 520.343 360.735C521.105 357.284 521.777 353.285 522.954 349.88C524.102 349.268 525.02 348.174 525.329 346.743C525.88 344.155 525.364 341.934 523.659 339.58C521.954 337.226 519.167 336.635 517.075 337.451C512.59 339.225 511.65 347.657 510.479 352.448C509.079 358.181 507.993 364.043 507.148 369.999C506.651 373.533 508.61 378.268 512.451 378.707L512.428 378.718Z" fill="#F45727"/>
<path d="M440.291 370.266C448.78 377.85 456.67 386.133 464.045 395.112C469.223 401.414 476.924 394.055 471.696 387.707C466.048 380.829 460.053 374.288 453.796 368.149C455.797 367.376 457.811 366.632 459.812 365.859C464.033 364.244 469.555 363.056 469.585 356.687C469.614 351.151 464.598 345.849 461.587 341.508C459.401 338.375 457.215 335.242 455.015 332.08C456.991 331.076 458.953 330.044 460.902 328.983C464.444 327.064 468.273 324.975 467.87 319.539C467.529 314.769 463.525 310.829 460.757 307.242C459.24 305.285 457.737 303.357 456.22 301.401C460.888 299.123 465.58 296.834 470.262 294.584C476.312 291.653 470.817 279.979 464.745 282.921C458.018 286.207 451.278 289.465 444.551 292.751C441.48 294.239 440.91 298.989 443.484 302.286C445.931 305.434 448.355 308.594 450.802 311.743C452.026 313.317 453.25 314.891 454.473 316.466C454.627 316.671 454.93 317.014 455.282 317.402C453.988 318.119 452.657 318.818 451.348 319.506C448.847 320.829 446.306 322.066 443.764 323.303C440.555 324.855 440.331 329.442 442.697 332.837C445.528 336.915 448.382 340.983 451.226 345.09C452.565 347.027 453.926 348.952 455.265 350.889C455.806 351.675 456.333 352.433 456.874 353.219C456.598 353.349 456.322 353.48 456.068 353.6C454.298 354.263 452.564 354.945 450.794 355.609C447.289 356.954 443.772 358.271 440.244 359.627C436.335 361.129 437.021 367.403 440.318 370.323L440.291 370.266ZM459.316 352.307C459.638 352.154 459.49 351.842 459.316 352.307V352.307Z" fill="#F45727"/>
<path d="M499.605 448.372C500.522 445.368 498.445 441.454 495.699 440.114C492.688 438.691 489.941 440.268 489.001 443.283C486.516 451.369 485.016 459.927 484.3 468.775C484.006 472.56 488.005 476.607 491.185 476.005C497.858 474.689 504.522 473.413 511.194 472.096C510.087 476.544 508.99 480.953 507.883 485.401C506.053 492.726 516.634 497.827 518.488 490.491C520.471 482.537 522.455 474.583 524.439 466.63C525.46 462.535 521.701 457.09 517.74 457.887C510.622 459.275 503.504 460.662 496.386 462.05C497.161 457.377 498.228 452.844 499.596 448.411L499.605 448.372Z" fill="#F45727"/>
<path d="M634.297 538.745C637.232 538.816 638.895 535.008 638.188 531.904C637.34 528.207 634.434 526.352 631.477 526.292C627.027 526.175 622.591 526.086 618.141 525.968C614.332 525.895 610.129 525.347 607.233 528.037C604.29 530.749 604.25 534.831 605.043 539.248C605.557 542.061 606.154 544.87 606.763 547.707C602.943 548.264 599.231 549.291 595.688 550.793C593.531 551.71 592.615 554.539 593.158 557.234C594.33 563.105 596.052 568.889 598.261 574.511C595.798 574.843 592.959 574.38 590.738 574.805C587.324 575.448 583.895 577.071 582.036 580.346C579.855 584.191 580.236 589.046 581.975 593.676C582.673 595.568 583.634 597.301 584.461 599.168C584.595 599.452 585.107 601.189 585.416 602.258C584.913 602.149 584.434 602.028 584.374 602.022C582.059 601.415 579.754 600.769 577.452 600.191C573.398 599.123 568.959 598.791 566.64 602.701C564.307 606.583 565.865 611.125 567.688 615.576C569.869 620.9 572.095 626.202 574.299 631.515C577.475 639.181 586.921 634.677 583.759 627.039C582.363 623.671 580.953 620.275 579.557 616.907C578.955 615.455 578.353 614.004 577.751 612.552L577.616 612.268C579.429 612.765 581.389 613.575 582.494 613.885C585.517 614.678 588.597 615.652 591.393 614.537C596.444 612.53 597.375 605.804 595.869 599.883C595.11 596.908 593.591 594.293 592.358 591.508C591.353 589.205 590.998 588.157 593.099 587.476C595.557 586.66 598.41 587.152 600.995 586.901C604.25 586.577 607.014 585.512 609.456 583.35C611.199 581.796 611.432 578.595 610.273 576.087C608.024 571.213 606.283 566.341 604.956 561.273C608.13 560.362 611.4 559.891 614.845 559.79C617.795 559.714 619.387 556.113 618.735 552.949C618.009 549.507 617.305 546.054 616.565 542.584C616.335 541.443 616.162 539.649 615.74 538.46C615.988 538.447 616.199 538.417 616.46 538.432C622.373 538.309 628.386 538.694 634.338 538.83L634.297 538.745Z" fill="#F45727"/>
<path d="M732.228 519.194C725.989 518.152 719.761 517.313 713.512 516.727C706.504 516.083 707.314 528.514 714.359 529.175C723.554 530.035 732.766 531.407 741.996 533.292C746.336 534.191 748.113 528.419 746.114 524.433C743.928 520.05 741.88 515.601 740.131 511.011C739.214 508.596 738.357 506.189 737.546 503.76C737.519 503.703 737.44 503.358 737.348 502.985C738.812 503.161 740.373 503.186 741.731 503.377C744.1 503.681 746.446 503.995 748.814 504.298C753.671 504.918 758.541 505.566 763.374 506.197C770.398 507.111 769.574 494.651 762.527 493.748C756.706 492.994 750.885 492.24 745.064 491.487C742.004 491.093 738.955 490.66 735.909 490.295C733.21 490.009 730.525 490.168 728.469 491.836C723.146 496.125 726.696 504.76 729.016 511.094C730.021 513.814 731.131 516.518 732.265 519.212L732.228 519.194Z" fill="#F45727"/>
<path d="M543.141 562.732C541.705 556.362 540.269 549.991 538.832 543.621C537.81 539.138 532.377 536.048 529.613 539.196C525.893 543.421 521.858 547.275 517.588 550.753C515.438 546.387 513.288 542.022 511.138 537.656C509.334 533.96 504.978 532.374 502.496 534.868C498.74 538.659 494.971 542.421 491.238 546.201C489.476 541.999 488.039 537.713 487.05 533.18C486.007 528.533 480.688 525.805 477.83 528.755C474.537 532.154 471.257 535.581 467.94 538.99C465.265 530.358 462.6 521.687 459.924 513.054C457.771 506.12 449.621 505.565 449.149 512.665C449.078 513.705 448.997 514.786 448.926 515.826C448.75 518.549 449.937 520.523 451.609 521.676C454.593 531.378 457.613 541.097 460.597 550.799C461.959 555.225 466.746 558.378 469.817 555.223C473.064 551.847 476.302 548.509 479.55 545.132C481.166 549.681 483.109 554.145 485.443 558.424C487.418 562.004 491.492 563.827 494.085 561.212C497.864 557.41 501.643 553.608 505.422 549.806C507.437 553.888 509.453 557.97 511.432 562.035C513.474 566.174 517.291 566.799 520.075 564.823C523.836 562.175 527.358 559.259 530.722 556.07C531.307 558.676 531.905 561.31 532.49 563.916C534.302 571.914 544.88 570.696 543.068 562.697L543.141 562.732Z" fill="#F45727"/>
<path d="M379.901 495.136C383.15 495.752 385.028 493.232 385.376 489.976C386.166 482.657 386.934 475.348 387.725 468.028C389.648 469.236 391.591 470.366 393.576 471.407C397.802 473.61 403.625 477.107 407.912 475.808C412.732 474.327 413.469 468.56 413.947 463.438C414.19 460.857 414.265 458.216 414.172 455.517C414.141 454.559 414.051 453.595 413.984 452.619C415.008 453.177 416.055 453.723 417.066 454.252C419.807 455.699 422.561 457.175 425.302 458.622C428.115 460.104 431.271 458.437 432 455.453C433.594 448.76 435.543 442.282 437.87 436.006C442.222 438.775 446.551 441.554 450.889 444.295C453.636 446.051 456.897 443.953 457.587 441.126C458.422 437.71 456.427 434.625 453.681 432.868C447.883 429.186 442.071 425.476 436.296 421.783C434.273 420.483 430.997 421.477 430.136 423.586C427.35 430.321 424.943 437.26 422.963 444.448C421.501 443.68 420.063 442.902 418.601 442.135C415.956 440.712 413.143 438.813 410.298 438.457C403.919 437.655 402.514 444.154 403.017 450.098C403.289 453.234 403.346 456.332 403.166 459.404C403.144 459.657 402.853 461.601 402.692 462.927C402.45 462.833 402.208 462.739 401.953 462.617C396.393 460.212 391.019 457.128 385.913 453.361C381.943 450.447 378.228 452.656 377.742 457.227C376.631 467.442 375.556 477.674 374.445 487.889C374.097 491.144 377.21 494.568 379.92 495.057L379.901 495.136ZM410.951 451.033L410.905 451.054C410.368 450.753 410.405 450.77 410.951 451.033Z" fill="#F45727"/>
<path d="M367.351 364.521C371.096 372.438 373.414 379.781 374.954 388.394C375.679 392.427 380.082 395.067 383.002 393.617C388.587 390.835 393.971 387.629 399.162 384.131L398.981 391.788C398.927 395.008 401.539 398.565 404.457 398.956C407.47 399.371 409.866 397.231 409.931 393.797C410.072 386.889 410.225 380.009 410.389 373.09C410.439 370.635 408.943 368.009 406.96 366.794C404.804 365.452 402.727 365.706 400.995 367.046C395.474 371.394 389.726 375.259 383.597 378.679C381.9 372.293 379.62 366.044 376.797 360.017C375.361 356.981 371.792 355.092 369.29 356.415C366.803 357.765 365.78 361.201 367.314 364.503L367.351 364.521Z" fill="#F45727"/>
<path d="M372.161 284.002C375.59 284.047 379.033 284.12 382.44 284.175C381.342 286.917 380.231 289.63 379.111 292.383C377.878 295.432 378.654 300.587 382.481 302.006C387.356 303.798 392.161 304.963 396.984 305.633C395.479 308.881 393.873 312.037 392.181 315.129C388.696 321.397 398.226 329.217 401.711 322.949C405.281 316.503 408.301 309.726 410.984 302.657C412.65 298.258 407.849 293.826 404.285 293.914C400.154 293.993 395.942 293.485 391.763 292.51C393.161 289.036 394.583 285.55 395.981 282.076C397.897 277.314 394.668 272.035 389.806 271.939C387.535 271.902 385.241 271.876 382.956 271.811C383.273 271.348 383.603 270.915 383.896 270.463C386.388 266.68 390.41 261.964 389.442 256.344C388.305 249.832 383.017 247.646 378.194 245.725C372.668 243.512 367.142 241.299 361.607 239.125C354.704 236.382 351.863 247.763 358.815 250.551C362.563 252.043 366.347 253.552 370.095 255.043C371.86 255.737 373.638 256.459 375.402 257.152C376.127 257.434 376.829 257.727 377.554 258.009C376.359 260.068 374.487 262.482 373.635 263.718C371.498 266.882 369.198 269.88 366.785 272.758C363.221 277.014 366.708 283.908 372.101 283.996L372.161 284.002Z" fill="#F45727"/>
<path d="M278.478 365.409C281.75 366.015 283.582 363.516 283.953 360.25C284.342 356.905 284.732 353.561 285.112 350.255C285.187 349.699 285.931 345.318 286.211 342.755C286.49 342.866 286.768 342.978 287.046 343.089C288.801 343.822 290.542 344.526 292.32 345.248C295.393 346.503 298.465 347.758 301.538 349.014C304.925 350.398 308.445 348.49 308.409 344.305C308.34 338.086 308.791 332.073 309.758 326.198C312.213 327.398 314.645 328.609 317.087 329.781C320.731 331.53 324.283 332.489 327.089 329.668C329.65 327.102 330.539 322.133 331.765 318.531C332.559 316.28 333.317 314.012 334.111 311.761C337.239 314.205 340.237 316.85 343.131 319.753C345.513 322.168 349.251 321.199 350.592 318.793C352.19 315.919 350.905 312.429 348.523 310.013C343.912 305.388 339.002 301.32 333.77 297.822C330.32 295.53 327.082 296.367 325.772 300.147C323.7 306.128 321.642 312.138 319.57 318.119C319.57 318.119 319.57 318.119 319.56 318.158C318.561 317.415 317 316.973 316.002 316.472C313.001 315.01 309.999 313.547 306.984 312.056C304.164 310.681 300.998 312.145 300.286 315.225C298.837 321.571 297.932 328.112 297.592 334.836C295.221 333.874 292.837 332.883 290.466 331.921C286.304 330.208 281.586 327.856 278.099 330.965C275.208 333.547 275.273 338.448 274.807 342.524C274.195 347.779 273.592 352.996 272.98 358.252C272.596 361.489 275.745 364.931 278.455 365.42L278.478 365.409Z" fill="#F45727"/>
<path d="M294.684 467.728C296.817 469.497 298.754 471.567 300.243 474.058C300.804 475.008 301.328 476.115 301.775 477.119C301.936 477.46 302.064 477.85 302.203 478.202C301.22 478.388 300.143 478.551 299.44 478.675C297.292 479.135 295.14 479.528 293.032 480.074C288.72 481.141 285.661 484.082 286.623 489.808C287.406 494.439 289.143 499.243 290.43 503.809C291.879 508.958 293.293 514.089 294.742 519.237C296.963 527.147 307.554 525.957 305.32 518.019C303.871 512.87 302.458 507.739 301.008 502.591C300.057 499.151 298.728 495.508 297.851 491.929C304.501 490.207 315.133 491.185 313.768 480.857C313.155 476.285 311.195 471.725 308.565 467.656C313.439 466.704 318.202 465.459 322.859 463.811C325.419 462.912 326.383 458.637 324.835 455.722L317.206 441.62C316.138 439.659 312.946 435.474 314.03 433.537C315.179 431.5 319.259 431.55 321.164 431.17C324.904 430.442 328.479 429.306 331.013 426.267C332.948 423.928 333.091 420.596 330.931 417.52C328.798 414.5 326.804 411.415 324.855 408.308C329.177 406.785 333.61 405.556 338.194 404.707C344.871 403.459 342.086 391.024 335.387 392.283C327.916 393.699 320.688 395.867 313.764 398.796C311.33 399.843 310.094 403.9 311.788 406.884C314.084 410.904 316.481 414.84 319.003 418.682C316.757 419.294 314.282 419.422 312.123 420.097C308.396 421.269 304.999 423.675 303.529 427.773C301.805 432.583 303.381 437.88 305.901 442.731C307.861 446.457 309.854 450.133 311.883 453.827C306.715 455.23 301.379 456.157 295.934 456.614C291.217 457.005 290.605 464.344 294.648 467.71L294.684 467.728Z" fill="#F45727"/>
<path d="M382.337 548.993C378.187 550.401 373.961 551.532 369.651 552.425C371.961 546.47 374.025 540.354 375.712 534.034C376.828 529.964 372.927 524.516 369.012 525.292C365.424 525.982 361.812 526.683 358.21 527.346L354.176 528.108C354.358 526.945 354.564 525.771 354.746 524.608C355.36 520.845 355.984 517.043 356.598 513.279C357.265 509.213 354.103 503.659 349.899 504.536C344.056 505.703 338.338 507.192 332.655 508.873C329.935 509.674 329.31 514.068 330.666 516.934C332.317 520.424 335.416 521.32 338.173 520.537C340.171 519.939 342.21 519.426 344.249 518.912C343.984 520.496 343.733 522.109 343.468 523.692C342.668 528.551 340.268 535.208 344.794 539.596C348.831 543.486 354.216 541.112 358.295 540.328C359.452 540.094 360.622 539.888 361.801 539.642C359.827 545.473 357.571 551.124 354.997 556.579C352.971 560.871 356.441 567.252 361.172 566.715C370.329 565.648 379.241 563.586 387.832 560.668C390.521 559.743 391.204 555.53 389.808 552.579C388.197 549.173 385.003 548.08 382.301 548.976L382.337 548.993Z" fill="#F45727"/>
<path d="M412.75 581.247C418.099 587.017 423.448 592.787 428.787 598.596C430.335 600.26 432.026 601.335 434.035 601.114C435.901 600.891 437.464 599.492 437.927 597.432C439.126 592.107 440.536 587.585 442.366 583.177C446.762 589.849 451.846 595.953 457.532 601.424C459.907 603.704 463.743 603.001 464.994 600.464C466.423 597.531 465.449 594.102 462.925 591.684C456.626 585.634 450.328 577.084 446.153 569.092C443.951 564.855 438.75 563.565 436.665 567.434C433.883 572.569 431.573 578.107 429.714 583.883C426.619 580.555 423.533 577.188 420.438 573.86C418.197 571.446 414.799 570.276 412.681 572.528C410.865 574.464 410.369 578.657 412.763 581.275L412.75 581.247Z" fill="#F45727"/>
<path d="M508.741 620.714C507.051 619.048 501.834 613.736 502.776 610.964C503.473 608.863 507.372 608.651 509.089 608.29C512.334 607.589 515.614 607.079 518.911 606.665C525.717 605.807 522.909 593.383 516.104 594.241C507.772 595.265 494.309 595.626 492.061 606.413C491.04 611.341 492.649 616.172 495.284 620.551C493.161 620.826 491.037 621.101 488.918 621.444C484.481 622.188 480.638 624.424 479.887 629.745C479.327 633.621 480.863 637.583 482.526 641.277C483.224 642.752 483.81 644.767 484.679 646.127C484.706 646.184 484.72 646.212 484.746 646.269C484.257 646.188 483.076 646.191 482.779 646.158C481.196 645.969 479.646 645.729 478.081 645.636C474.301 645.445 470.586 646.404 468.564 649.93C464.543 656.972 469.899 666.211 474.771 673.77C468.401 675.012 461.231 672.777 454.536 670.77C451.578 669.877 449.063 672.838 449.061 675.93C449.053 679.545 451.579 682.205 454.537 683.098C465.189 686.325 476.914 689.078 485.987 683.189C488.141 681.788 489.896 678.353 487.963 675.1C485.247 670.55 482.334 666.059 479.803 661.422C479.381 660.649 478.909 659.831 478.602 659.004C478.535 658.862 478.476 658.438 478.383 658.065C478.548 658.057 478.723 658.009 478.782 658.015C484.661 657.7 490.876 660.595 494.499 654.262C497.81 648.459 494.024 641.706 491.491 635.577C491.303 635.18 491.127 634.568 490.958 634.093C491.556 634.226 493.004 633.715 493.578 633.617C498.21 632.989 502.856 632.389 507.478 631.799C512.44 631.154 512.496 624.425 508.764 620.703L508.741 620.714ZM484.844 646.535C484.919 646.812 484.714 646.736 484.844 646.535V646.535Z" fill="#F45727"/>
<path d="M404.537 631.946C402.059 633.674 399.557 635.413 397.079 637.141C396.446 634.731 395.814 632.322 395.181 629.913C393.986 625.303 388.948 622.512 385.961 625.488C383.368 628.104 380.774 630.72 378.168 633.307C376.871 634.615 375.574 635.923 374.287 637.192L373.075 632.486C371.969 628.182 370.862 623.879 369.766 619.536C367.72 611.578 357.128 612.768 359.188 620.754C360.597 626.234 361.993 631.686 363.379 637.177C364.85 642.906 366.259 650.47 372.556 651.694C377.167 652.569 380.301 649.072 383.186 646.179C384.585 644.788 385.993 643.358 387.391 641.967C387.874 643.822 388.357 645.677 388.827 647.504C390.171 652.668 394.784 654.202 398.047 651.929C400.594 650.168 403.118 648.419 405.666 646.658C406.941 650.604 408.437 654.481 410.176 658.277C413.641 665.84 423.102 661.365 419.636 653.802C417.034 648.122 415.101 642.368 413.734 636.382C412.55 631.142 407.675 629.767 404.514 631.957L404.537 631.946ZM375.403 641.456C375.403 641.456 375.332 640.83 375.196 640.304C375.459 640.562 375.587 640.953 375.403 641.456Z" fill="#F45727"/>
<path d="M205.166 356.853C210.333 357.535 215.513 358.244 220.68 358.925C218.687 363.584 216.658 368.226 214.665 372.884C212.888 376.989 215.976 383.933 220.84 383.021C224.699 382.307 228.545 381.564 232.427 380.839C231.113 384.135 229.785 387.402 228.471 390.698C226.96 394.469 228.753 400.045 233.237 400.772C238.686 401.632 244.118 401.98 249.49 401.904C248.516 404.31 247.236 406.547 245.757 408.601C244.014 410.989 245.471 415.439 247.826 417.381C250.64 419.697 253.544 418.809 255.288 416.422C259.412 410.79 261.595 403.853 262.367 396.195C262.768 392.22 258.581 388.609 255.481 388.964C250.914 389.492 246.334 389.575 241.698 389.303C243.417 385.017 245.136 380.731 246.878 376.434C248.535 372.316 245.626 365.392 240.702 366.297C236.972 366.985 233.255 367.702 229.501 368.401C231.014 364.872 232.551 361.332 234.065 357.803C235.653 354.135 233.753 348.331 229.299 347.729C221.238 346.646 213.213 345.58 205.151 344.497C198.114 343.554 198.092 355.893 205.152 356.825L205.166 356.853Z" fill="#F45727"/>
<path d="M561.124 678.275C557.001 678.073 552.915 678.13 548.864 678.379C550.372 675.374 552.039 672.467 553.833 669.708C556.018 666.348 553.051 660.076 549.067 659.634C542.252 658.864 535.506 658.895 528.956 659.875C526.214 660.27 524.151 663.294 525.066 666.716C525.937 669.986 528.823 672.753 531.777 672.328C534.098 671.994 536.449 671.785 538.818 671.671C536.976 675.46 535.331 679.364 533.907 683.441C532.48 687.45 536.912 692.889 540.606 692.183C544.103 691.536 547.644 691.042 551.223 690.808C552.964 690.678 554.733 690.606 556.515 690.562C557.435 690.543 558.369 690.552 559.303 690.562C559.693 690.551 560.073 690.58 560.462 690.57C560.64 690.589 560.805 690.581 561.007 690.59C561.053 690.568 561.089 690.586 561.149 690.592C562.677 690.668 563.947 690.553 565.067 689.468C565.997 688.576 566.675 686.971 566.636 685.461C566.537 682.452 564.205 678.415 561.161 678.292L561.124 678.275Z" fill="#F45727"/>
<path d="M432.129 697.241C429.59 693.719 426.203 691.501 422.695 693.195C419.633 694.644 418.632 699.493 417.383 702.688C416.827 704.132 416.341 705.786 415.716 707.263C414.462 705.981 413.031 704.921 411.276 704.188C407.839 702.758 404.016 702.656 400.968 704.133C397.358 705.91 395.011 709.521 393.577 713.637C392.967 715.384 392.612 717.254 392.33 719.159C392.265 719.676 392.225 720.007 392.181 720.271C392.075 720.287 391.956 720.273 391.81 720.203C385.782 717.464 377.156 707.028 371.875 714.562C369.381 718.103 370.572 723.895 370.892 728.502C371.066 730.954 371.231 733.446 371.405 735.899C371.492 737.212 371.842 739.026 372.034 740.741C370.079 742.742 369.617 746.469 371.51 749.637C374.312 754.25 379.895 754.56 382.101 750.53C384.008 747.058 382.545 740.631 382.261 736.459C382.072 733.736 381.882 731.012 381.706 728.317C381.679 727.844 381.616 727.353 381.539 726.834C381.589 726.879 381.675 726.943 381.725 726.989C383.309 728.253 384.844 729.472 386.545 730.508C389.606 732.394 393.005 733.148 396.121 732.472C399.33 731.753 401.883 729.469 402.73 725.839C403.48 722.601 403.273 718.532 405.728 716.398C407.124 715.182 408.578 715.397 409.89 716.86C411.355 718.528 411.927 720.272 413.971 721.319C415.42 722.058 416.925 722.145 418.329 721.897C421.523 721.324 423.696 718.594 424.949 715.467C425.684 713.626 426.405 711.756 427.126 709.887C427.207 709.641 427.324 709.412 427.404 709.165C427.508 709.325 427.598 709.456 427.702 709.615C429.201 711.892 430.711 714.13 432.21 716.407C434.111 719.293 438.028 719.594 439.967 717.739C442.184 715.579 441.799 711.906 439.885 708.991C437.313 705.103 434.826 701.035 432.106 697.252L432.129 697.241Z" fill="#F45727"/>
<path d="M334.751 633.286C331.278 629.338 325.915 629.791 321.789 629.347C318.994 629.037 316.2 628.726 313.382 628.427C314.246 625.727 315.086 623.037 315.949 620.336C317.302 616.05 320.325 610.592 317.968 605.49C315.571 600.304 310.674 599.599 306.61 600.236C304.876 600.501 303.132 600.805 301.412 601.098C303.606 593.531 305.788 585.935 307.983 578.368C308.982 574.943 306.151 570.031 302.68 569.659C297.52 569.113 292.539 567.753 287.514 565.408C280.68 562.216 277.875 573.614 284.723 576.834C288.194 578.456 291.716 579.708 295.264 580.599C292.797 589.198 290.307 597.808 287.839 606.407C286.644 610.549 290.675 615.796 294.538 615.15C297.64 614.62 300.755 614.119 303.833 613.6C304.535 613.477 305.274 613.371 305.976 613.247C305.416 615.04 304.842 616.804 304.305 618.587C302.972 622.794 301.638 627.002 300.305 631.21C299.223 634.639 302.219 639.542 305.608 639.919C309.875 640.366 314.133 640.852 318.401 641.299C320.423 641.523 322.444 641.748 324.466 641.972C324.585 641.985 324.704 641.998 324.823 642.012C324.289 643.028 323.756 644.044 323.315 645.017C321.874 648.164 320.433 651.311 318.956 654.441C315.925 661.015 325.446 668.874 328.486 662.261C330.813 657.236 333.177 652.229 335.431 647.169C337.351 642.892 338.734 637.896 334.728 633.297L334.751 633.286Z" fill="#F45727"/>
<path d="M215.936 484.421C220.386 481.204 224.53 477.577 228.42 473.654C228.709 476.469 228.678 479.261 228.25 481.93C227.316 487.755 233.315 493.113 237.458 489.486C240.362 486.931 243.29 484.366 246.207 481.839C246.59 486.937 246.974 492.034 247.343 497.103C247.581 500.464 249.679 503.708 252.819 504.272C255.566 504.778 258.544 502.501 258.293 499.112C257.575 489.554 256.856 479.997 256.151 470.467C255.748 465.032 250.405 461.239 246.757 464.423C244.112 466.751 241.443 469.09 238.785 471.39C238.16 467.448 237.05 463.494 235.445 459.565C233.951 455.93 228.97 454.154 226.802 456.777C223.228 461.072 219.338 464.996 215.218 468.612C213.849 461.967 212.49 455.282 211.121 448.637C209.46 440.601 198.895 441.848 200.543 449.855C202.588 459.896 204.671 469.955 206.717 479.996C207.781 485.223 212.871 486.635 215.936 484.421Z" fill="#F45727"/>
</g>
</svg>
